<svg width="42" height="28" viewBox="0 0 42 28" fill="none" xmlns="http://www.w3.org/2000/svg">
<g clip-path="url(#clip0_164_6263)">
<path fill-rule="evenodd" clip-rule="evenodd" d="M2.83286 2.09976C2.12744 2.09976 1.5889 2.66208 1.5889 3.31447V24.5503C1.5889 25.2028 2.12747 25.7651 2.83286 25.7651H38.505C39.2104 25.7651 39.749 25.2028 39.749 24.5503V3.31447C39.749 2.6621 39.2105 2.09976 38.505 2.09976H2.83286ZM0 3.31447C0 1.733 1.28669 0.484375 2.83286 0.484375H38.505C40.0512 0.484375 41.3379 1.73299 41.3379 3.31447V24.5503C41.3379 26.1318 40.0513 27.3805 38.505 27.3805H2.83286C1.28666 27.3805 0 26.1319 0 24.5503V3.31447Z" fill="#53585E"/>
<path fill-rule="evenodd" clip-rule="evenodd" d="M28.4805 13.4824V19.0616H31.5292V15.7554H34.9845C36.4387 15.7445 37.674 14.8 38.1399 13.4824H28.4805Z" fill="#53585E"/>
<path fill-rule="evenodd" clip-rule="evenodd" d="M28.0742 8.88477C28.2518 11.1652 30.3739 12.9659 32.9656 12.9659C32.9741 12.9659 38.2667 12.9659 38.2667 12.9659C38.3059 12.7567 38.3263 12.5409 38.3263 12.3201C38.3263 10.431 36.8272 8.89874 34.9727 8.88486L28.0742 8.88477Z" fill="#53585E"/>
<path fill-rule="evenodd" clip-rule="evenodd" d="M23.5611 12.9116L23.5634 12.9064L23.5638 12.9065C23.595 12.8495 23.6549 12.8109 23.7237 12.8109C23.823 12.8109 23.9038 12.8914 23.9065 12.9917L23.9066 12.9917V19.01H26.9554V8.88477H23.9066C23.52 8.89785 23.0832 9.18628 22.9208 9.54034L20.4945 14.8301C20.4885 14.8517 20.4792 14.8719 20.4671 14.89L20.4662 14.8918L20.4659 14.8917C20.4292 14.9454 20.3681 14.9806 20.2989 14.9806C20.1866 14.9806 20.0956 14.8881 20.0956 14.7739V8.88477H17.0469V19.01H20.0956V19.0089C20.478 18.9886 20.9046 18.7034 21.0646 18.3544L23.5548 12.9252C23.5567 12.9206 23.5588 12.916 23.5611 12.9116Z" fill="#53585E"/>
<path fill-rule="evenodd" clip-rule="evenodd" d="M12.1775 13.0847L10.3957 19.01H8.20246L6.41951 13.0811C6.40232 12.9861 6.32049 12.9142 6.22213 12.9142C6.11128 12.9142 6.02142 13.0056 6.02142 13.1183C6.02142 13.1191 6.02142 13.12 6.02143 13.1208L6.02142 19.01H2.97266V8.88477H5.58951H6.36886C6.92984 8.88477 7.51771 9.32737 7.68164 9.87251L9.16539 14.8065C9.23922 15.052 9.35899 15.0518 9.43273 14.8065L10.9165 9.87251C11.0805 9.32699 11.6682 8.88477 12.2293 8.88477L13.0084 8.88477H15.625V19.01H12.5763V13.1208C12.5762 13.12 12.5763 13.1191 12.5763 13.1183C12.5763 13.0056 12.4864 12.9142 12.3755 12.9142C12.2759 12.9142 12.1933 12.988 12.1775 13.0847Z" fill="#53585E"/>
</g>
<defs>
<clipPath id="clip0_164_6263">
<rect width="42" height="28" fill="white"/>
</clipPath>
</defs>
</svg>
