<svg width="42" height="28" viewBox="0 0 42 28" fill="none" xmlns="http://www.w3.org/2000/svg">
<g clip-path="url(#clip0_164_6276)">
<path d="M39.6328 0.538086H2.23235C0.999977 0.538086 0 1.55982 0 2.82025V25.1249C0 26.3856 0.999492 27.4072 2.23235 27.4072H39.6328C40.8653 27.4072 41.8652 26.3854 41.8652 25.1249V2.82025C41.8652 1.5596 40.8657 0.538086 39.6328 0.538086V0.538086ZM27.8976 25.5981C25.2762 25.5981 22.8596 24.6886 20.9315 23.1677C19.0048 24.6887 16.5882 25.5981 13.9665 25.5981C7.68158 25.5981 2.56835 20.3815 2.56835 13.9716C2.56835 7.56124 7.68153 2.34732 13.9665 2.34732C16.5881 2.34732 19.0046 3.25339 20.9315 4.77648C22.8594 3.25339 25.276 2.34732 27.8976 2.34732C34.1825 2.34732 39.2957 7.56145 39.2957 13.9716C39.2957 20.3815 34.1822 25.5981 27.8976 25.5981Z" fill="#53585E"/>
<path d="M11.7426 14.7165C11.6301 14.7047 11.5811 14.7002 11.504 14.7002C10.8974 14.7002 10.5918 14.9125 10.5918 15.3307C10.5918 15.5897 10.7418 15.7545 10.9735 15.7545C11.4098 15.7545 11.7232 15.3307 11.7426 14.7165Z" fill="#53585E"/>
<path d="M29.562 14.7165C29.4507 14.7047 29.4008 14.7002 29.3223 14.7002C28.7168 14.7002 28.4102 14.9125 28.4102 15.3307C28.4102 15.5897 28.5602 15.7545 28.7943 15.7545C29.2293 15.7545 29.5439 15.3307 29.562 14.7165Z" fill="#53585E"/>
<path d="M20.4447 14.008C20.4515 13.922 20.5571 13.2646 19.9505 13.2646C19.6121 13.2646 19.3691 13.5306 19.2715 14.008H20.4447Z" fill="#53585E"/>
<path d="M34.7801 15.6079C35.2775 15.6079 35.6286 15.0305 35.6286 14.2086C35.6286 13.6802 35.43 13.3945 35.0616 13.3945C34.5766 13.3945 34.2324 13.9717 34.2324 14.788C34.2324 15.3325 34.4166 15.6079 34.7801 15.6079Z" fill="#53585E"/>
<path d="M27.862 3.39062C25.553 3.39062 23.4212 4.16402 21.6988 5.46909C23.2608 6.95519 24.416 8.88498 24.9679 11.0599H23.913C23.3724 9.13725 22.3158 7.43969 20.9049 6.13328C19.4956 7.43969 18.4382 9.13719 17.8997 11.0599H16.8431C17.3963 8.88514 18.5515 6.95535 20.1135 5.46909C18.3903 4.16402 16.2593 3.39062 13.9492 3.39062C8.22532 3.39062 3.58594 8.13372 3.58594 13.9859C3.58594 19.8369 8.22581 24.5812 13.9492 24.5812C16.2594 24.5812 18.3903 23.8078 20.1135 22.5028C18.6437 21.1035 17.5349 19.3107 16.9488 17.2927H18.0156C18.5823 19.0596 19.5884 20.6193 20.9049 21.8386C22.2227 20.6193 23.2302 19.0597 23.797 17.2927H24.8635C24.2764 19.3108 23.1678 21.1034 21.6988 22.5028C23.421 23.8078 25.5527 24.5812 27.862 24.5812C33.5854 24.5812 38.2253 19.8366 38.2253 13.9859C38.2253 8.13339 33.5853 3.39062 27.862 3.39062ZM7.85874 16.5673L8.47102 12.6425L7.10462 16.5673H6.37544L6.28568 12.6658L5.64291 16.5673H4.64208L5.4768 11.4606H7.0147L7.05788 14.6213L8.09501 11.4606H9.75455L8.92758 16.5673H7.85874ZM12.8382 14.3636C12.7451 14.9637 12.5463 16.2526 12.519 16.5673H11.633L11.6536 16.1365C11.3831 16.4767 11.0231 16.6395 10.5337 16.6395C9.95319 16.6395 9.55801 16.1762 9.55801 15.5061C9.55801 14.4934 10.2473 13.9048 11.4332 13.9048C11.5547 13.9048 11.7102 13.9164 11.8693 13.9373C11.9023 13.7991 11.9103 13.7411 11.9103 13.6667C11.9103 13.3928 11.725 13.2894 11.2253 13.2894C10.7029 13.2824 10.2712 13.416 10.094 13.4764C10.1055 13.4068 10.2428 12.5428 10.2428 12.5428C10.7746 12.3826 11.1264 12.3222 11.5217 12.3222C12.4395 12.3222 12.9257 12.7425 12.9245 13.5391C12.9257 13.7527 12.8916 14.0162 12.8382 14.3636ZM15.7334 13.3672C15.4631 13.3277 15.1757 13.3043 14.9668 13.3043C14.6204 13.3043 14.4421 13.4182 14.4421 13.6435C14.4421 13.8374 14.4944 13.8838 14.9417 14.0951C15.4779 14.3473 15.6949 14.6794 15.6949 15.2517C15.6949 16.1992 15.1746 16.6394 14.0468 16.6394C13.3936 16.6205 13.1779 16.5697 12.9337 16.5163L13.0813 15.5572C13.4233 15.6707 13.7209 15.7196 14.0389 15.7196C14.4625 15.7196 14.6534 15.6035 14.6534 15.3459C14.6534 15.1564 14.5863 15.0961 14.1536 14.8872C13.5878 14.6143 13.3403 14.2532 13.3403 13.7271V13.7271C13.3357 12.9596 13.7491 12.3221 14.9451 12.3221C15.1894 12.3221 15.6085 12.3592 15.8857 12.4034L15.7334 13.3672ZM17.9677 13.4135H17.4193C17.2966 14.2021 17.1205 15.1844 17.1182 15.3167C17.1182 15.5315 17.2306 15.6243 17.485 15.6243C17.6066 15.6243 17.7007 15.6105 17.7723 15.5849L17.6317 16.5047C17.3382 16.5975 17.1103 16.6395 16.8625 16.6395C16.3162 16.6395 16.0185 16.3178 16.0185 15.7266C16.0119 15.5432 16.0981 15.0614 16.1663 14.6189C16.2265 14.2322 16.6284 11.7882 16.6284 11.7882H17.6906L17.5669 12.415H18.1132L17.9677 13.4135ZM21.3048 14.8477H19.1898C19.1182 15.4479 19.4955 15.6988 20.1135 15.6988C20.4938 15.6988 20.8359 15.6197 21.2174 15.4387L21.0414 16.4721C20.6756 16.5861 20.3233 16.6394 19.951 16.6394C18.7604 16.6368 18.1404 16.0019 18.1404 14.7861C18.1404 13.3671 18.9298 12.322 20.0008 12.322C20.8766 12.322 21.4367 12.9061 21.4367 13.8257C21.4367 14.13 21.3971 14.4261 21.3048 14.8477ZM23.6765 13.5946C23.078 13.532 22.9861 14.0278 22.6032 16.5672H21.5343L21.5833 16.2875C21.7684 15.0008 22.0068 13.6992 22.1411 12.4149H23.1222C23.1311 12.6262 23.0848 12.8318 23.0585 13.0455C23.3848 12.5543 23.6367 12.2941 24.0832 12.3895C23.9514 12.6194 23.7731 13.0733 23.6765 13.5946ZM26.8853 16.4884C26.4923 16.5998 26.2367 16.6395 25.9415 16.6395C24.791 16.6395 24.0739 15.7917 24.0739 14.4356C24.0739 12.6101 25.0644 11.3352 26.4809 11.3352C26.9476 11.3352 27.4986 11.5373 27.6553 11.5999L27.4803 12.7076C27.0987 12.5102 26.8216 12.4311 26.525 12.4311C25.7268 12.4311 25.1687 13.2197 25.1687 14.3447C25.1687 15.1193 25.5437 15.5884 26.1649 15.5884C26.4289 15.5884 26.7195 15.5039 27.0727 15.3261L26.8853 16.4884ZM30.6574 14.3636C30.5654 14.9637 30.3658 16.2526 30.3383 16.5673H29.4536L29.474 16.1365C29.2025 16.4767 28.8412 16.6395 28.3527 16.6395C27.7735 16.6395 27.3758 16.1762 27.3758 15.5061C27.3758 14.4934 28.0676 13.9048 29.2523 13.9048C29.3739 13.9048 29.5295 13.9164 29.6887 13.9373C29.7212 13.7991 29.7294 13.7411 29.7294 13.6667C29.7294 13.3928 29.5443 13.2894 29.0455 13.2894C28.522 13.2824 28.0916 13.416 27.9143 13.4764C27.9245 13.4068 28.062 12.5428 28.062 12.5428C28.5947 12.3826 28.9467 12.3222 29.3397 12.3222C30.2586 12.3222 30.745 12.7425 30.7437 13.5391C30.746 13.7527 30.7109 14.0162 30.6574 14.3636ZM31.9456 16.5672H30.8778L30.9267 16.2875C31.1118 15.0008 31.3493 13.6992 31.4833 12.4149H32.4647C32.4749 12.6262 32.4283 12.8318 32.4022 13.0455C32.7281 12.5543 32.9782 12.2941 33.4265 12.3895C33.2926 12.6194 33.1153 13.0733 33.0199 13.5946C32.4214 13.532 32.3284 14.0278 31.9456 16.5672ZM35.3464 16.5672L35.3973 16.1806C35.1031 16.5001 34.8022 16.6395 34.4115 16.6395C33.6344 16.6395 33.1211 15.9554 33.1211 14.9174C33.1211 13.5342 33.917 12.3708 34.8598 12.3708C35.2735 12.3708 35.5891 12.5427 35.8812 12.9364L36.1174 11.4605H37.1717L36.3581 16.5672H35.3464Z" fill="#53585E"/>
</g>
<defs>
<clipPath id="clip0_164_6276">
<rect width="42" height="28" fill="white"/>
</clipPath>
</defs>
</svg>
