<svg width="44" height="28" viewBox="0 0 44 28" fill="none" xmlns="http://www.w3.org/2000/svg">
<g clip-path="url(#clip0_164_6272)">
<path fill-rule="evenodd" clip-rule="evenodd" d="M2.96775 2.09976C2.22875 2.09976 1.66457 2.66208 1.66457 3.31447V24.5503C1.66457 25.2028 2.22878 25.7651 2.96775 25.7651H40.3386C41.0776 25.7651 41.6418 25.2028 41.6418 24.5503V3.31447C41.6418 2.6621 41.0776 2.09976 40.3386 2.09976H2.96775ZM0 3.31447C0 1.733 1.34796 0.484375 2.96775 0.484375H40.3386C41.9584 0.484375 43.3064 1.73299 43.3064 3.31447V24.5503C43.3064 26.1318 41.9585 27.3805 40.3386 27.3805H2.96775C1.34793 27.3805 0 26.1319 0 24.5503V3.31447Z" fill="#53585E"/>
<path d="M16.4705 18.9911L18.2515 9.09314H21.1004L19.318 18.9911H16.4705ZM29.6095 9.30637C29.0451 9.10585 28.1608 8.89062 27.0564 8.89062C24.2415 8.89062 22.2587 10.2331 22.2419 12.157C22.226 13.5793 23.6574 14.3728 24.7378 14.8462C25.8467 15.3313 26.2195 15.6407 26.2142 16.0739C26.2071 16.7374 25.3286 17.0406 24.51 17.0406C23.3698 17.0406 22.764 16.8905 21.8285 16.5209L21.4614 16.3637L21.0615 18.5794C21.727 18.8557 22.9574 19.0951 24.2348 19.1075C27.2292 19.1075 29.1731 17.7804 29.1953 15.7259C29.206 14.5999 28.4471 13.743 26.8036 13.0366C25.8079 12.5788 25.198 12.2731 25.2046 11.8095C25.2046 11.3981 25.7206 10.9581 26.8358 10.9581C27.7675 10.9444 28.4422 11.1368 28.9679 11.3373L29.2232 11.4516L29.6094 9.30621L29.6095 9.30637ZM36.9402 9.09282H34.739C34.0571 9.09282 33.5468 9.26911 33.2472 9.9137L29.0167 18.9846H32.0079C32.0079 18.9846 32.497 17.7648 32.6077 17.4971C32.9347 17.4971 35.8405 17.5014 36.256 17.5014C36.3412 17.8479 36.6025 18.9846 36.6025 18.9846H39.2459L36.9402 9.09255V9.09282ZM33.4477 15.4844C33.6833 14.9141 34.5827 12.7175 34.5827 12.7175C34.5659 12.7439 34.8166 12.1444 34.9605 11.7728L35.153 12.6263C35.153 12.6263 35.6984 14.9889 35.8125 15.4844H33.4477ZM14.0528 9.09282L11.2638 15.8424L10.9667 14.4706C10.4475 12.8894 8.82987 11.1762 7.02148 10.3186L9.57154 18.9749L12.5855 18.9716L17.0702 9.09244H14.0528" fill="#53585E"/>
<path d="M8.66107 9.09277H4.06759L4.03125 9.29873C7.60485 10.1181 9.96931 12.0979 10.9514 14.4769L9.95255 9.92836C9.7801 9.3017 9.28001 9.11469 8.66129 9.09277" fill="#53585E"/>
</g>
<defs>
<clipPath id="clip0_164_6272">
<rect width="44" height="28" fill="white"/>
</clipPath>
</defs>
</svg>
