<svg width="38" height="38" viewBox="0 0 38 38" fill="none" xmlns="http://www.w3.org/2000/svg">
<path d="M37.8228 19C37.8329 15.0114 36.5673 11.1241 34.2111 7.90591C32.4656 5.52158 30.1875 3.5778 27.5581 2.22944H27.5228C27.164 2.04708 26.7993 1.88238 26.4287 1.72355C23.745 0.57062 20.8299 0.0580334 17.9139 0.226351C14.9979 0.394669 12.161 1.23927 9.62785 2.69334C7.09465 4.1474 4.93459 6.17103 3.31857 8.6041C1.70255 11.0372 0.674907 13.813 0.316958 16.7118C0.275782 17.0294 0.24637 17.353 0.22284 17.6765C0.175782 18.1118 0.175782 18.5588 0.175782 19C0.175005 22.889 1.37882 26.6828 3.62174 29.8599C5.86467 33.037 9.0366 35.4414 12.7015 36.7425C16.3664 38.0437 20.3444 38.1777 24.0885 37.1263C27.8327 36.0748 31.1593 33.8895 33.6111 30.8706C36.3344 27.5136 37.8213 23.3227 37.8228 19ZM33.0052 29.7118C32.5925 29.4476 32.2511 29.086 32.0111 28.6588C31.74 28.1349 31.5868 27.558 31.5624 26.9686C31.538 26.3792 31.643 25.7916 31.8699 25.2471C31.9699 24.9941 32.0875 24.7471 32.2052 24.4941C32.6477 23.7409 32.8717 22.8793 32.8523 22.0059C32.7946 21.6029 32.69 21.2081 32.5405 20.8294C32.3518 20.4552 32.2742 20.0347 32.317 19.6177C32.42 19.3576 32.5695 19.1184 32.7581 18.9118C33.0638 18.5735 33.2908 18.1717 33.4228 17.7353C33.7346 16.3883 32.5287 15.2647 31.2405 14.8883C30.8993 14.7824 30.5523 14.7177 30.2111 14.6471C29.6018 14.5737 29.0146 14.3733 28.4875 14.0588C28.2137 13.8617 27.9983 13.5941 27.8642 13.2845C27.73 12.9749 27.6821 12.6348 27.7255 12.3002C27.7689 11.9655 27.902 11.6489 28.1108 11.3838C28.3195 11.1186 28.596 10.9149 28.9111 10.7941C29.4957 10.6276 30.1081 10.5816 30.7111 10.6588H31.0581C32.0087 10.7746 32.9677 10.5243 33.7405 9.95885C33.8367 9.87556 33.92 9.77842 33.9875 9.67061C35.8807 12.7127 36.801 16.26 36.6255 19.8388C36.4499 23.4176 35.187 26.8577 33.0052 29.7V29.7118ZM18.9993 1.35297C21.338 1.357 23.6528 1.82277 25.8111 2.72355L25.9405 2.9765C27.164 5.94708 22.6699 8.92356 19.8817 10.4353L19.4052 10.7L16.6817 12.1765C15.7695 12.6004 14.9499 13.2001 14.2699 13.9412C13.8888 14.3793 13.6413 14.9175 13.5568 15.492C13.4724 16.0665 13.5545 16.6531 13.7934 17.1824C14.8405 19.1236 17.6581 18.5765 18.5817 18.4C19.5052 18.2236 21.5228 17.9706 21.9993 19.1412C22.2228 19.6706 22.3228 20.3177 22.0405 20.6765C19.8405 23.2647 19.7581 25.7941 19.6875 28.2353C19.6893 29.3993 19.571 30.5603 19.3346 31.7C19.0817 32.7647 18.7464 33.3353 18.264 33.3883C17.6758 33.4765 17.1875 32.5941 17.0875 31.9353C17.0464 31.6883 17.0228 31.4412 16.9934 31.1941C16.9782 30.36 16.734 29.546 16.2875 28.8412C15.7972 28.2748 15.1806 27.8315 14.4875 27.5471C13.8892 27.3497 13.3751 26.9558 13.0287 26.4294C12.8881 25.9742 12.8619 25.4913 12.9523 25.0236C13.0492 24.4367 13.0252 23.8361 12.8817 23.2588C12.5894 22.4994 12.0876 21.8385 11.4346 21.353C11.0666 21.0561 10.7436 20.7073 10.4758 20.3177C9.88755 19.2883 10.2346 17.9294 10.7464 16.3941C11.2228 14.9647 11.717 12.9059 10.5346 11.4706C10.2277 11.1054 9.83649 10.8203 9.3948 10.6399C8.95312 10.4595 8.47418 10.3893 7.99931 10.4353C7.37947 10.4722 6.77629 10.6504 6.23592 10.9563C5.69555 11.2621 5.23231 11.6876 4.88166 12.2C4.55206 12.7445 4.27625 13.3198 4.05813 13.9177C3.63461 14.9647 3.2699 15.8765 2.44637 16.153C2.158 16.2123 1.86431 16.2419 1.5699 16.2412C2.23694 12.0954 4.35616 8.32184 7.54898 5.59453C10.7418 2.86721 14.8002 1.36384 18.9993 1.35297ZM18.9993 36.6471C14.319 36.6471 9.83042 34.7878 6.52096 31.4784C3.21149 28.1689 1.35225 23.6803 1.35225 19C1.35225 18.5883 1.35225 18.1706 1.39343 17.7588L1.42872 17.4236C1.89784 17.4353 2.36649 17.3858 2.82284 17.2765C4.15813 16.8177 4.68755 15.5118 5.17578 14.3353C5.36571 13.8104 5.60398 13.3043 5.88755 12.8236C6.13783 12.4683 6.46519 12.1743 6.84514 11.9634C7.2251 11.7526 7.64781 11.6304 8.08166 11.6059C8.37108 11.5763 8.66341 11.614 8.93585 11.7161C9.20829 11.8181 9.45347 11.9817 9.65225 12.1941C10.4523 13.1706 10.0758 14.7412 9.65225 16C9.18166 17.4 8.54637 19.3236 9.48166 20.8941C9.80451 21.3889 10.2013 21.8313 10.6581 22.2059C11.1283 22.5524 11.5011 23.0143 11.7405 23.5471C11.824 23.9764 11.824 24.4178 11.7405 24.8471C11.6193 25.5195 11.6802 26.2121 11.917 26.853C12.3611 27.6361 13.0704 28.2348 13.917 28.5412C14.4452 28.7481 14.9199 29.0718 15.3052 29.4883C15.6126 30.0263 15.7785 30.6334 15.7875 31.253C15.7875 31.5294 15.8405 31.8059 15.8875 32.0706C16.0934 33.2941 16.9464 34.5118 18.1523 34.5118C18.2306 34.5175 18.3092 34.5175 18.3875 34.5118C19.8758 34.3177 20.3111 32.5177 20.4523 31.9236C20.7047 30.7083 20.8328 29.4706 20.8346 28.2294C20.9111 25.8765 20.9875 23.6647 22.9228 21.3941C23.564 20.6294 23.417 19.4706 23.064 18.6353C22.4758 17.2353 20.7875 16.7236 18.3581 17.1941C16.4405 17.5647 15.2523 17.3588 14.8287 16.5765C14.7008 16.2522 14.6661 15.8986 14.7285 15.5556C14.7908 15.2126 14.9478 14.8939 15.1817 14.6353C15.7691 14.0344 16.4659 13.5513 17.2346 13.2118L19.9523 11.7294L20.4346 11.4706C25.364 8.80003 27.6934 6.05885 27.264 3.41179C29.5708 4.63526 31.5793 6.35253 33.1464 8.4412C33.117 8.87061 33.0464 9.02944 32.9817 9.08238C32.4297 9.43929 31.7684 9.58739 31.117 9.50003H30.7817C30.0164 9.40696 29.2401 9.47917 28.5052 9.71179C27.9952 9.91052 27.5482 10.243 27.2111 10.6741C26.874 11.1053 26.6592 11.6194 26.5894 12.1622C26.5196 12.7051 26.5973 13.2567 26.8143 13.7592C27.0314 14.2616 27.3797 14.6964 27.8228 15.0177C28.4853 15.4308 29.2302 15.6938 30.0052 15.7883C30.3287 15.853 30.6346 15.9177 30.9287 16C31.6993 16.2294 32.4287 16.8647 32.2934 17.4588C32.1998 17.7323 32.0494 17.9828 31.8523 18.1941C31.5587 18.5213 31.3363 18.9059 31.1993 19.3236C31.0797 19.971 31.1661 20.6396 31.4464 21.2353C31.5659 21.5222 31.6508 21.8224 31.6993 22.1294C31.6879 22.7873 31.5033 23.4305 31.164 23.9941C31.0287 24.2647 30.8993 24.5412 30.7934 24.8177C30.5037 25.5245 30.372 26.2862 30.4076 27.0493C30.4432 27.8124 30.6451 28.5585 30.9993 29.2353C31.3172 29.79 31.7554 30.2664 32.2817 30.6294C30.6278 32.5252 28.586 34.0435 26.2945 35.0817C24.0029 36.1199 21.5151 36.6538 18.9993 36.6471Z" fill="#53585E"/>
</svg>
