<svg width="40" height="28" viewBox="0 0 40 28" fill="none" xmlns="http://www.w3.org/2000/svg">
<path d="M36.4945 2.87912C36.4945 2.87912 34.6154 4.34066 32.1099 4.34066C29.6044 4.34066 24.3846 1 22.2967 1C20.2088 1 21.2527 1 18.3297 1C15.4066 1 13.3187 7.47253 12.0659 7.47253C10.8132 7.47253 10.1868 5.38462 8.51648 5.38462C6.84615 5.38462 4.54945 5.38462 4.54945 5.38462C4.54945 5.38462 1 5.8022 1 9.56044C1 13.3187 4.54945 13.9451 4.54945 13.9451M4.54945 13.9451C4.54945 13.9451 6.01099 13.9451 8.51648 13.9451C11.022 13.9451 10.8132 12.0659 12.0659 12.0659C13.3187 12.0659 14.7802 18.7473 18.3297 18.7473C21.8791 18.7473 19.7912 18.7473 22.2967 18.7473C24.8022 18.7473 29.3956 14.989 32.1099 14.989C34.8242 14.989 36.4945 16.6593 36.4945 16.6593M4.54945 13.9451H1V26.0549H38.5824V17.2857M17.7033 6.63736C17.7033 6.63736 19.3736 6.63736 20.6264 6.63736C21.8791 6.63736 21.8791 5.38462 21.8791 5.38462M17.7033 12.6923C17.7033 12.6923 19.3736 12.6923 20.6264 12.6923C21.8791 12.6923 21.8791 13.9451 21.8791 13.9451M13.3187 9.76923H16.4505M18.5385 9.76923H21.2527M23.1319 9.76923H25.6374M27.7253 9.76923H31.0659M32.9451 9.76923H35.6593M37.5385 9.76923H39M3.50549 18.7473C3.50549 18.7473 5.38462 18.7473 8.51648 18.7473C11.6484 18.7473 15.8242 23.3407 18.3297 23.3407C20.8352 23.3407 20 23.3407 22.2967 23.3407C24.5934 23.3407 29.6044 19.7912 32.1099 19.7912C34.6154 19.7912 36.4945 21.2527 36.4945 21.2527" stroke="#53585E" stroke-width="2" stroke-linecap="round" stroke-linejoin="round"/>
</svg>
