<svg width="32" height="32" viewBox="0 0 32 32" fill="none" xmlns="http://www.w3.org/2000/svg">
<path d="M26.746 2.43567L27.8842 1.29747C27.8842 1.29747 29.0793 0.330001 30.4451 1.69584C31.8109 3.06168 31.0142 4.42752 31.0142 4.42752C31.0142 4.42752 30.3882 5.05353 29.1362 6.30555C27.8842 7.55757 21.9655 1.18365 21.2257 1.92348C20.4859 2.66331 26.2338 8.63886 25.437 9.4356C24.6403 10.2323 18.7786 4.37061 17.9818 5.16735C17.1851 5.96409 23.1606 11.712 22.4208 12.4518C21.681 13.1917 15.8761 7.27302 14.9656 8.18358C14.055 9.09414 20.0306 14.8421 19.2907 15.5819C18.5509 16.3217 12.5185 10.6307 11.7786 11.3705C11.0388 12.1104 17.0143 17.8583 16.1038 18.7688C15.1932 19.6794 9.55914 13.59 8.59167 14.5575C7.6242 15.525 13.7136 21.1591 12.9737 21.8989C12.2339 22.6387 6.31527 16.8339 5.57544 17.5737C4.83561 18.3136 10.6404 24.2322 9.9006 24.972C9.16077 25.7119 3.58359 19.5656 2.44539 20.7038C1.30719 21.842 8.30712 27.1346 6.94128 28.5005C5.57544 29.8663 5.12016 30.3216 5.12016 30.3216C5.12016 30.3216 3.52668 31.346 2.16084 29.9801C0.794997 28.6143 1.76247 27.4192 1.76247 27.4192L2.84376 26.3379" stroke="#53585E" stroke-width="1.3" stroke-linecap="round" stroke-linejoin="round"/>
</svg>
