<svg width="40" height="40" viewBox="0 0 40 40" fill="none" xmlns="http://www.w3.org/2000/svg">
<path d="M32.666 36H23.3327C23.1559 36 22.9863 35.9298 22.8613 35.8047C22.7363 35.6797 22.666 35.5101 22.666 35.3333V4.66667C22.666 4.48986 22.7363 4.32029 22.8613 4.19526C22.9863 4.07024 23.1559 4 23.3327 4H32.666C32.8428 4 33.0124 4.07024 33.1374 4.19526C33.2624 4.32029 33.3327 4.48986 33.3327 4.66667V35.3333C33.3327 35.5101 33.2624 35.6797 33.1374 35.8047C33.0124 35.9298 32.8428 36 32.666 36ZM23.9993 34.6667H31.9993V5.33333H23.9993V34.6667Z" fill="#53585E"/>
<path d="M23.3333 9.3334H26.6667V10.6667H23.3333V9.3334ZM23.3333 13.3334H26.6667V14.6667H23.3333V13.3334ZM23.3333 17.3334H26.6667V18.6667H23.3333V17.3334ZM23.3333 21.3334H26.6667V22.6667H23.3333V21.3334ZM23.3333 25.3334H26.6667V26.6667H23.3333V25.3334ZM23.3333 29.3334H26.6667V30.6667H23.3333V29.3334ZM14 34.6667H11.3333C9.49533 34.6667 8 33.1714 8 31.3334V12.0001C8 11.8687 8.03933 11.7394 8.112 11.6301L12.112 5.63006C12.3593 5.25873 12.974 5.25873 13.2213 5.63006L17.2213 11.6301C17.294 11.7394 17.3333 11.8687 17.3333 12.0001V31.3334C17.3333 33.1714 15.838 34.6667 14 34.6667ZM9.33333 12.2021V31.3334C9.33333 32.4361 10.2307 33.3334 11.3333 33.3334H14C15.1027 33.3334 16 32.4361 16 31.3334V12.2021L12.6667 7.20206L9.33333 12.2021Z" fill="#53585E"/>
<path d="M16.6667 30.6667H8.66667C8.48986 30.6667 8.32029 30.5965 8.19526 30.4715C8.07024 30.3465 8 30.1769 8 30.0001C8 29.8233 8.07024 29.6537 8.19526 29.5287C8.32029 29.4037 8.48986 29.3334 8.66667 29.3334H16.6667C16.8435 29.3334 17.013 29.4037 17.1381 29.5287C17.2631 29.6537 17.3333 29.8233 17.3333 30.0001C17.3333 30.1769 17.2631 30.3465 17.1381 30.4715C17.013 30.5965 16.8435 30.6667 16.6667 30.6667ZM16.6667 28.0001H8.66667C8.48986 28.0001 8.32029 27.9298 8.19526 27.8048C8.07024 27.6798 8 27.5102 8 27.3334C8 27.1566 8.07024 26.987 8.19526 26.862C8.32029 26.737 8.48986 26.6667 8.66667 26.6667H16.6667C16.8435 26.6667 17.013 26.737 17.1381 26.862C17.2631 26.987 17.3333 27.1566 17.3333 27.3334C17.3333 27.5102 17.2631 27.6798 17.1381 27.8048C17.013 27.9298 16.8435 28.0001 16.6667 28.0001Z" fill="#53585E"/>
<path d="M11.3327 28.0001C11.1559 28.0001 10.9863 27.9298 10.8613 27.8048C10.7363 27.6798 10.666 27.5102 10.666 27.3334V14.6667C10.666 14.4899 10.7363 14.3204 10.8613 14.1953C10.9863 14.0703 11.1559 14.0001 11.3327 14.0001C11.5095 14.0001 11.6791 14.0703 11.8041 14.1953C11.9291 14.3204 11.9993 14.4899 11.9993 14.6667V27.3334C11.9993 27.5102 11.9291 27.6798 11.8041 27.8048C11.6791 27.9298 11.5095 28.0001 11.3327 28.0001ZM13.9993 28.0001C13.8225 28.0001 13.653 27.9298 13.5279 27.8048C13.4029 27.6798 13.3327 27.5102 13.3327 27.3334V14.6667C13.3327 14.4899 13.4029 14.3204 13.5279 14.1953C13.653 14.0703 13.8225 14.0001 13.9993 14.0001C14.1762 14.0001 14.3457 14.0703 14.4708 14.1953C14.5958 14.3204 14.666 14.4899 14.666 14.6667V27.3334C14.666 27.5102 14.5958 27.6798 14.4708 27.8048C14.3457 27.9298 14.1762 28.0001 13.9993 28.0001ZM10.666 8.66675H14.666V10.0001H10.666V8.66675Z" fill="#53585E"/>
<path d="M10.6667 15.3333C9.196 15.3333 8 14.1373 8 12.6667C8 12.4899 8.07024 12.3203 8.19526 12.1953C8.32029 12.0702 8.48986 12 8.66667 12C8.84348 12 9.01305 12.0702 9.13807 12.1953C9.2631 12.3203 9.33333 12.4899 9.33333 12.6667C9.33333 13.402 9.93133 14 10.6667 14C11.402 14 12 13.402 12 12.6667C12 12.4899 12.0702 12.3203 12.1953 12.1953C12.3203 12.0702 12.4899 12 12.6667 12C12.8435 12 13.013 12.0702 13.1381 12.1953C13.2631 12.3203 13.3333 12.4899 13.3333 12.6667C13.3333 14.1373 12.1373 15.3333 10.6667 15.3333Z" fill="#53585E"/>
<path d="M14.6667 15.3333C13.196 15.3333 12 14.1373 12 12.6667C12 12.4899 12.0702 12.3203 12.1953 12.1953C12.3203 12.0702 12.4899 12 12.6667 12C12.8435 12 13.013 12.0702 13.1381 12.1953C13.2631 12.3203 13.3333 12.4899 13.3333 12.6667C13.3333 13.402 13.9313 14 14.6667 14C15.402 14 16 13.402 16 12.6667C16 12.4899 16.0702 12.3203 16.1953 12.1953C16.3203 12.0702 16.4899 12 16.6667 12C16.8435 12 17.013 12.0702 17.1381 12.1953C17.2631 12.3203 17.3333 12.4899 17.3333 12.6667C17.3333 14.1373 16.1373 15.3333 14.6667 15.3333Z" fill="#53585E"/>
</svg>
