<svg width="40" height="40" viewBox="0 0 40 40" fill="none" xmlns="http://www.w3.org/2000/svg">
<g clip-path="url(#clip0_1_2149)">
<path d="M20.625 4.375H19.375V5.625H20.625V4.375Z" fill="#53585E"/>
<path d="M20.625 8.125H19.375V9.375H20.625V8.125Z" fill="#53585E"/>
<path d="M20.625 11.875H19.375V13.125H20.625V11.875Z" fill="#53585E"/>
<path d="M20.625 15.625H19.375V16.875H20.625V15.625Z" fill="#53585E"/>
<path d="M20.625 19.375H19.375V20.625H20.625V19.375Z" fill="#53585E"/>
<path d="M13.75 4.375H12.5V5.625H13.75V4.375Z" fill="#53585E"/>
<path d="M13.125 8.125H11.875V9.375H13.125V8.125Z" fill="#53585E"/>
<path d="M12.5 11.875H11.25V13.125H12.5V11.875Z" fill="#53585E"/>
<path d="M11.875 15.625H10.625V16.875H11.875V15.625Z" fill="#53585E"/>
<path d="M11.25 19.375H10V20.625H11.25V19.375Z" fill="#53585E"/>
<path d="M10.625 23.125H9.375V24.375H10.625V23.125Z" fill="#53585E"/>
<path d="M10 26.875H8.75V28.125H10V26.875Z" fill="#53585E"/>
<path d="M27.5 4.375H26.25V5.625H27.5V4.375Z" fill="#53585E"/>
<path d="M28.125 8.125H26.875V9.375H28.125V8.125Z" fill="#53585E"/>
<path d="M28.75 11.875H27.5V13.125H28.75V11.875Z" fill="#53585E"/>
<path d="M29.375 15.625H28.125V16.875H29.375V15.625Z" fill="#53585E"/>
<path d="M37.295 23.2938L33.4619 2.97625C33.3366 2.31541 32.9847 1.71897 32.4669 1.28976C31.949 0.860549 31.2976 0.625453 30.625 0.625H9.375C8.70239 0.625453 8.05101 0.860549 7.53315 1.28976C7.01529 1.71897 6.66339 2.31541 6.53813 2.97625L0.765625 33.5737C0.674687 33.8312 0.627164 34.102 0.625 34.375V36.875C0.625 37.538 0.888392 38.1739 1.35723 38.6428C1.82607 39.1116 2.46196 39.375 3.125 39.375H36.875C37.538 39.375 38.1739 39.1116 38.6428 38.6428C39.1116 38.1739 39.375 37.538 39.375 36.875V34.375C39.3736 33.7822 39.1598 33.2094 38.7725 32.7606C39.3485 31.1867 39.5152 29.4923 39.2567 27.8363C38.9983 26.1804 38.3232 24.6173 37.295 23.2938ZM29.375 38.125C27.6444 38.125 25.9527 37.6118 24.5138 36.6504C23.0748 35.6889 21.9533 34.3223 21.2911 32.7235C20.6288 31.1246 20.4555 29.3653 20.7931 27.668C21.1307 25.9706 21.9641 24.4115 23.1878 23.1878C24.4115 21.9641 25.9706 21.1307 27.668 20.7931C29.3653 20.4555 31.1246 20.6288 32.7235 21.2911C34.3223 21.9533 35.6889 23.0748 36.6504 24.5138C37.6118 25.9527 38.125 27.6444 38.125 29.375C38.1225 31.6949 37.1999 33.919 35.5594 35.5594C33.919 37.1999 31.6949 38.1225 29.375 38.125ZM7.76625 3.20875C7.83725 2.83394 8.03678 2.49565 8.33045 2.25218C8.62412 2.00871 8.99353 1.87532 9.375 1.875H30.625C31.0064 1.87529 31.3757 2.00859 31.6694 2.25194C31.963 2.49528 32.1626 2.83343 32.2338 3.20812L35.7125 21.6456C34.0851 20.2983 32.072 19.5025 29.9633 19.3727C27.8545 19.2429 25.759 19.786 23.9787 20.9236C22.1984 22.0613 20.8253 23.7347 20.0571 25.7028C19.2889 27.671 19.1654 29.8322 19.7044 31.875H3.125C2.85445 31.8781 2.58626 31.9258 2.33125 32.0163L7.76625 3.20875ZM3.125 38.125C2.79348 38.125 2.47554 37.9933 2.24112 37.7589C2.0067 37.5245 1.875 37.2065 1.875 36.875V34.375C1.875 34.0435 2.0067 33.7255 2.24112 33.4911C2.47554 33.2567 2.79348 33.125 3.125 33.125H4.375V36.25H5.625V33.125H7.5V36.25H8.75V33.125H10.625V36.25H11.875V33.125H13.75V36.25H15V33.125H16.875V36.25H18.125V33.125H20.1113C20.9757 35.2483 22.5398 37.0125 24.5444 38.125H3.125ZM38.125 34.375V36.875C38.125 37.2065 37.9933 37.5245 37.7589 37.7589C37.5245 37.9933 37.2065 38.125 36.875 38.125H34.2056C35.8435 37.2157 37.1952 35.8674 38.1087 34.2319C38.117 34.2792 38.1224 34.327 38.125 34.375Z" fill="#53585E"/>
<path d="M33.7313 28.5988C33.6975 28.4635 33.6195 28.3434 33.5097 28.2575C33.3998 28.1717 33.2644 28.125 33.125 28.125H32.1338L31.0669 27.0581C30.9742 26.9655 30.8548 26.9043 30.7255 26.8832C30.5962 26.8621 30.4635 26.8822 30.3463 26.9406L29.6537 27.2863L29.3125 26.5956C29.2259 26.4421 29.0853 26.3263 28.9181 26.2706C27.6334 25.8425 26.288 25.6245 24.9338 25.625H23.75C23.5842 25.625 23.4253 25.6908 23.3081 25.8081C23.1908 25.9253 23.125 26.0842 23.125 26.25C23.1255 28.0124 23.756 29.7166 24.9025 31.055L27.0275 33.5313C27.1181 33.6373 27.2416 33.71 27.3783 33.7377C27.515 33.7655 27.6571 33.7467 27.7819 33.6844L28.6294 33.2606L29.5606 34.1919C29.6369 34.2681 29.7316 34.3233 29.8356 34.3521C29.9395 34.3809 30.0491 34.3824 30.1537 34.3563L32.6537 33.7313C32.8047 33.6937 32.9361 33.6012 33.0225 33.4719L34.0844 31.875H36.25V30.625H34.2375L33.7313 28.5988ZM30.1919 33.0581L29.1919 32.0581C29.0992 31.9653 28.9797 31.9041 28.8502 31.883C28.7208 31.8619 28.588 31.8821 28.4706 31.9406L27.6581 32.3481L25.8531 30.2419C25.04 29.2927 24.5355 28.1182 24.4069 26.875H24.9338C26.0782 26.8754 27.2161 27.0488 28.3087 27.3894L28.815 28.4038C28.889 28.552 29.0189 28.6648 29.1761 28.7173C29.3333 28.7698 29.5048 28.7577 29.6531 28.6838L30.5012 28.2606L31.4331 29.1919C31.5503 29.3091 31.7093 29.375 31.875 29.375H32.6369L32.9494 30.6175C31.1178 30.579 29.3439 29.9698 27.875 28.875L27.125 29.875C28.7145 31.0586 30.618 31.7468 32.5969 31.8531L32.1144 32.5775L30.1919 33.0581Z" fill="#53585E"/>
</g>
<defs>
<clipPath id="clip0_1_2149">
<rect width="40" height="40" fill="white"/>
</clipPath>
</defs>
</svg>
