<svg width="14" height="15" viewBox="0 0 14 15" fill="none" xmlns="http://www.w3.org/2000/svg">
<path d="M11.6673 7.49992C11.6673 6.88069 11.6673 6.57108 11.6331 6.31115C11.3968 4.51621 9.98436 3.10378 8.18942 2.86747C7.92949 2.83325 7.61988 2.83325 7.00065 2.83325V2.83325C6.38142 2.83325 6.07181 2.83325 5.81188 2.86747C4.01695 3.10378 2.60451 4.51621 2.3682 6.31115C2.33398 6.57108 2.33398 6.88069 2.33398 7.49992V10.2999C2.33398 11.1138 2.33398 11.5207 2.55684 11.7959C2.60081 11.8502 2.65036 11.8998 2.70466 11.9437C2.97987 12.1666 3.38679 12.1666 4.20065 12.1666H7.00065C7.61988 12.1666 7.92949 12.1666 8.18942 12.1324C9.98436 11.8961 11.3968 10.4836 11.6331 8.68869C11.6673 8.42876 11.6673 8.11915 11.6673 7.49992V7.49992Z" stroke="#55626B"/>
<path d="M5.25 6.33325L8.75 6.33325" stroke="#55626B" stroke-linecap="round" stroke-linejoin="round"/>
<path d="M5.25 8.66675H7" stroke="#55626B" stroke-linecap="round" stroke-linejoin="round"/>
</svg>
