<svg width="24" height="24" viewBox="0 0 24 24" fill="none" xmlns="http://www.w3.org/2000/svg">
<g clip-path="url(#clip0_128_21609)">
<path d="M22.8046 6.89023H16.4951C17.2763 6.06927 17.742 5.04527 17.742 4.11248C17.742 3.43717 17.5103 2.85308 17.0718 2.42568C16.6378 2.00196 16.0486 1.77759 15.3681 1.77759C14.3713 1.77759 13.2649 2.27708 12.4094 3.11202C12.1719 3.34545 11.958 3.60171 11.7709 3.87708C11.5836 3.60153 11.3695 3.34525 11.1316 3.11202C10.276 2.27635 9.16965 1.77759 8.17287 1.77759C7.49168 1.77759 6.90244 2.00196 6.46988 2.42494C6.03071 2.85308 5.79899 3.43717 5.79899 4.11248C5.79899 5.04527 6.26464 6.06927 7.04589 6.89023H0.735632C0.54053 6.89023 0.35342 6.96773 0.215462 7.10569C0.077504 7.24365 0 7.43076 0 7.62586V12.751C0 12.9461 0.077504 13.1332 0.215462 13.2712C0.35342 13.4091 0.54053 13.4866 0.735632 13.4866H1.90676V21.6397C1.90676 21.8348 1.98426 22.0219 2.12222 22.1598C2.26018 22.2978 2.44729 22.3753 2.64239 22.3753H20.8971C21.0922 22.3753 21.2793 22.2978 21.4173 22.1598C21.5552 22.0219 21.6327 21.8348 21.6327 21.6397V13.4866H22.8046C22.9997 13.4866 23.1868 13.4091 23.3248 13.2712C23.4627 13.1332 23.5402 12.9461 23.5402 12.751V7.62586C23.5402 7.43076 23.4627 7.24365 23.3248 7.10569C23.1868 6.96773 22.9997 6.89023 22.8046 6.89023ZM8.69076 12.0154V8.3615H14.848V12.0154H8.69076ZM14.8487 13.4866V20.904H8.69149V13.4866H14.8487ZM15.3681 3.24885C15.5689 3.24885 15.8499 3.28858 16.0441 3.47837C16.1949 3.6255 16.2714 3.83883 16.2714 4.11248C16.2714 4.70025 15.9147 5.41308 15.3401 5.97363C14.7612 6.53933 14.0204 6.89023 13.4084 6.89023C13.2075 6.89023 12.9265 6.85051 12.7331 6.66145C12.5823 6.51432 12.5057 6.30025 12.5057 6.02586C12.5057 5.43883 12.8618 4.72527 13.4363 4.16545C14.0153 3.59975 14.7553 3.24885 15.3681 3.24885ZM7.49609 3.4769C7.68956 3.28784 7.97058 3.24812 8.1714 3.24812C8.78418 3.24812 9.52423 3.59975 10.1032 4.16471C10.677 4.72527 11.0337 5.43736 11.0345 6.02439C11.0345 6.29952 10.958 6.51359 10.8072 6.65998C10.613 6.84977 10.332 6.88949 10.1311 6.88949C9.51908 6.88949 8.7783 6.53786 8.19936 5.9729C7.62556 5.41161 7.26805 4.69952 7.26805 4.11175C7.26878 3.83809 7.34455 3.62476 7.49609 3.4769ZM1.47126 8.3615H7.21949V12.0154H1.47126V8.3615ZM3.37802 13.4866H7.22023V20.904H3.37802V13.4866ZM20.1615 20.904H16.3193V13.4866H20.1615V20.904ZM22.069 12.0154H16.3193V8.3615H22.0682V12.0154H22.069Z" fill="#61D0B0"/>
</g>
<defs>
<clipPath id="clip0_128_21609">
<rect width="24" height="24" fill="white"/>
</clipPath>
</defs>
</svg>
