<svg width="32" height="52" viewBox="0 0 32 52" fill="none" xmlns="http://www.w3.org/2000/svg">
<path d="M14.7936 46.3143C14.7845 46.3294 14.7855 46.3258 14.7968 46.3088C14.7956 46.3109 14.7945 46.3127 14.7936 46.3143ZM18.0131 47.0234C18.0129 47.0216 18.0127 47.0195 18.0124 47.0171C18.0155 47.0373 18.0149 47.0409 18.0131 47.0234ZM17.2064 5.68569C17.2155 5.67059 17.2145 5.67417 17.2032 5.69121C17.2044 5.68913 17.2055 5.68729 17.2064 5.68569ZM13.9869 4.97659C13.9871 4.97845 13.9874 4.98057 13.9876 4.98298C13.9845 4.96274 13.9851 4.95908 13.9869 4.97659ZM2.53698 31.1154L4.22228 30.0385L2.53698 31.1154C3.14853 32.0724 4.11066 32.331 4.71508 32.4207C5.25409 32.5006 5.91441 32.5003 6.52341 32.5C6.55908 32.5 6.59458 32.5 6.62986 32.5H14V46.2299C14 46.2552 14 46.2809 14 46.3068C13.9998 46.6816 13.9996 47.1126 14.036 47.4511C14.0544 47.6226 14.0986 47.9625 14.2568 48.3166C14.4352 48.7157 14.8783 49.3667 15.766 49.5623C16.6538 49.7578 17.3294 49.3531 17.6589 49.066C17.9513 48.8111 18.1342 48.5211 18.2229 48.3733C18.3982 48.0814 18.5791 47.6901 18.7364 47.35C18.7472 47.3265 18.758 47.3032 18.7687 47.2802L29 25.1805C29.0148 25.1485 29.0297 25.1163 29.0447 25.0839C29.3009 24.5314 29.5786 23.9323 29.7325 23.4096C29.905 22.8234 30.0746 21.8417 29.463 20.8846C28.8515 19.9276 27.8893 19.669 27.2849 19.5793C26.7459 19.4994 26.0856 19.4997 25.4766 19.5C25.4409 19.5 25.4054 19.5 25.3701 19.5H18V5.77013C18 5.74477 18 5.7191 18 5.69316C18.0002 5.31844 18.0004 4.88738 17.964 4.54887C17.9456 4.37744 17.9014 4.03746 17.7432 3.68336C17.5648 3.28431 17.1217 2.63325 16.234 2.43773C15.3462 2.2422 14.6706 2.64685 14.3411 2.93405C14.0487 3.1889 13.8658 3.47887 13.7771 3.62669C13.6018 3.91858 13.4209 4.30985 13.2636 4.64998C13.2528 4.67352 13.242 4.69682 13.2313 4.71982L2.99999 26.8195C2.98517 26.8515 2.97025 26.8837 2.95525 26.9161C2.69914 27.4686 2.42145 28.0677 2.26754 28.5904C2.09496 29.1766 1.92542 30.1583 2.53698 31.1154ZM13.9995 30.8946C13.9995 30.8948 13.9995 30.895 13.9995 30.8952L13.9995 30.8946ZM16.3914 19.4994C16.3911 19.4994 16.3925 19.4994 16.3952 19.4995C16.395 19.4995 16.3948 19.4995 16.3946 19.4995C16.3926 19.4994 16.3915 19.4994 16.3914 19.4994ZM18.0005 21.1048C18.0007 21.1096 18.0006 21.1101 18.0005 21.1054L18.0005 21.1048Z" stroke="#61D0B0" stroke-width="4"/>
</svg>
