<svg width="60" height="60" viewBox="0 0 60 60" fill="none" xmlns="http://www.w3.org/2000/svg">
<path d="M28.7936 50.3143C28.7845 50.3294 28.7855 50.3258 28.7968 50.3088C28.7956 50.3109 28.7945 50.3127 28.7936 50.3143ZM32.0131 51.0234C32.0129 51.0216 32.0127 51.0195 32.0124 51.0171C32.0155 51.0373 32.0149 51.0409 32.0131 51.0234ZM31.2064 9.68569C31.2155 9.67059 31.2145 9.67417 31.2032 9.69121C31.2044 9.68913 31.2055 9.68729 31.2064 9.68569ZM27.9869 8.97659C27.9871 8.97845 27.9874 8.98057 27.9876 8.98298C27.9845 8.96274 27.9851 8.95908 27.9869 8.97659ZM16.537 35.1154L18.2223 34.0385L16.537 35.1154C17.1485 36.0724 18.1107 36.331 18.7151 36.4207C19.2541 36.5006 19.9144 36.5003 20.5234 36.5C20.5591 36.5 20.5946 36.5 20.6299 36.5H28V50.2299C28 50.2552 28 50.2809 28 50.3068C27.9998 50.6816 27.9996 51.1126 28.036 51.4511C28.0544 51.6226 28.0986 51.9625 28.2568 52.3166C28.4352 52.7157 28.8783 53.3667 29.766 53.5623C30.6538 53.7578 31.3294 53.3531 31.6589 53.066C31.9513 52.8111 32.1342 52.5211 32.2229 52.3733C32.3982 52.0814 32.5791 51.6901 32.7364 51.35C32.7472 51.3265 32.758 51.3032 32.7687 51.2802L43 29.1805C43.0148 29.1485 43.0297 29.1163 43.0447 29.0839C43.3009 28.5314 43.5786 27.9323 43.7325 27.4096C43.905 26.8234 44.0746 25.8417 43.463 24.8846C42.8515 23.9276 41.8893 23.669 41.2849 23.5793C40.7459 23.4994 40.0856 23.4997 39.4766 23.5C39.4409 23.5 39.4054 23.5 39.3701 23.5H32V9.77013C32 9.74477 32 9.7191 32 9.69316C32.0002 9.31844 32.0004 8.88738 31.964 8.54887C31.9456 8.37744 31.9014 8.03746 31.7432 7.68336C31.5648 7.28431 31.1217 6.63325 30.234 6.43773C29.3462 6.2422 28.6706 6.64685 28.3411 6.93405C28.0487 7.1889 27.8658 7.47887 27.7771 7.62669C27.6018 7.91858 27.4209 8.30985 27.2636 8.64998C27.2528 8.67352 27.242 8.69682 27.2313 8.71982L17 30.8195C16.9852 30.8515 16.9702 30.8837 16.9552 30.9161C16.6991 31.4686 16.4214 32.0677 16.2675 32.5904C16.095 33.1766 15.9254 34.1583 16.537 35.1154ZM27.9995 34.8946C27.9995 34.8948 27.9995 34.895 27.9995 34.8952L27.9995 34.8946ZM30.3914 23.4994C30.3911 23.4994 30.3925 23.4994 30.3952 23.4995C30.395 23.4995 30.3948 23.4995 30.3946 23.4995C30.3926 23.4994 30.3915 23.4994 30.3914 23.4994ZM32.0005 25.1048C32.0007 25.1096 32.0006 25.1101 32.0005 25.1054L32.0005 25.1048Z" stroke="#61D0B0" stroke-width="4"/>
</svg>
