<svg width="14" height="18" viewBox="0 0 14 18" fill="none" xmlns="http://www.w3.org/2000/svg">
<path d="M12 6.16668H11.1429V4.54763C11.1429 2.31332 9.22286 0.5 6.85716 0.5C4.49146 0.5 2.57143 2.31332 2.57143 4.54763V6.16668H1.71429C0.771434 6.16668 0 6.89525 0 7.78573V15.881C0 16.7715 0.771434 17.5 1.71429 17.5H12C12.9428 17.5 13.7143 16.7715 13.7143 15.881V7.78573C13.7143 6.89525 12.9429 6.16668 12 6.16668ZM4.20001 4.54763C4.20001 3.16336 5.39146 2.0381 6.85716 2.0381C8.32286 2.0381 9.5143 3.16336 9.5143 4.54763V6.16668H4.20001V4.54763ZM12 15.8809H1.71429V7.7857H12V15.8809H12Z" fill="#53585E"/>
</svg>
