<svg width="8" height="13" viewBox="0 0 8 13" fill="none" xmlns="http://www.w3.org/2000/svg">
<path d="M3.39101 9.11022C2.42642 9.01397 1.55684 8.78772 0.81184 8.23189C0.71934 8.16397 0.623942 8.09647 0.539775 8.01981C0.213942 7.72106 0.181024 7.37939 0.43894 7.02731C0.659357 6.72564 1.03017 6.6448 1.41517 6.81772C1.48934 6.85105 1.5606 6.89315 1.62852 6.93773C3.01643 7.84815 4.92268 7.87231 6.31601 6.97898C6.45435 6.87815 6.60144 6.79606 6.77269 6.75397C7.10519 6.67231 7.41517 6.78898 7.59351 7.06647C7.79767 7.38356 7.79477 7.69273 7.54394 7.93773C7.15852 8.31481 6.69519 8.58815 6.18019 8.77856C5.69352 8.95815 5.16019 9.04897 4.63269 9.10939C4.71227 9.19147 4.74977 9.2323 4.79977 9.2798C5.51644 9.96688 6.236 10.6506 6.95017 11.339C7.1935 11.5731 7.24393 11.864 7.11018 12.1377C6.96393 12.4356 6.63561 12.6315 6.31436 12.6102C6.11061 12.5973 5.95143 12.5002 5.81059 12.3644C5.26976 11.8461 4.71894 11.3377 4.18894 10.809C4.03477 10.6544 3.9606 10.6836 3.82476 10.8165C3.2806 11.3511 2.72769 11.8769 2.17186 12.3994C1.92186 12.634 1.62477 12.6765 1.33519 12.5427C1.02727 12.4006 0.831426 12.1006 0.846426 11.7998C0.856843 11.5961 0.962262 11.4402 1.10893 11.3006C1.81768 10.6248 2.52518 9.94814 3.23226 9.27231C3.27935 9.22731 3.32309 9.18022 3.39101 9.11022ZM3.97893 6.75815C2.25768 6.75315 0.846436 5.3923 0.856853 3.74855C0.866436 2.0873 2.27851 0.747723 4.01685 0.751473C5.7581 0.756056 7.1556 2.11523 7.14726 3.79439C7.1381 5.43481 5.71726 6.76398 3.97893 6.75815ZM5.54311 3.7523C5.54019 2.93647 4.85811 2.2873 4.00436 2.28647C3.14311 2.28564 2.45518 2.9473 2.46185 3.77022C2.4681 4.58314 3.1556 5.22856 4.01227 5.22522C4.86602 5.22272 5.54561 4.56939 5.54311 3.7523Z" fill="white"/>
</svg>
