<svg width="17" height="17" viewBox="0 0 17 17" fill="none" xmlns="http://www.w3.org/2000/svg">
<path d="M3.58268 11.0001C4.34102 11.0001 5.02685 10.7017 5.54685 10.2251L10.7635 13.2059C10.706 13.4351 10.666 13.6701 10.666 13.9167C10.666 15.5251 11.9743 16.8334 13.5827 16.8334C15.191 16.8334 16.4993 15.5251 16.4993 13.9167C16.4993 12.3084 15.191 11.0001 13.5827 11.0001C12.8243 11.0001 12.1385 11.2984 11.6185 11.7751L6.40185 8.79425C6.45435 8.58841 6.48768 8.37591 6.49185 8.15425L11.6177 5.22508C12.1385 5.70175 12.8243 6.00008 13.5827 6.00008C15.191 6.00008 16.4993 4.69175 16.4993 3.08341C16.4993 1.47508 15.191 0.166748 13.5827 0.166748C11.9743 0.166748 10.666 1.47508 10.666 3.08341C10.666 3.33008 10.706 3.56508 10.7635 3.79425L6.02685 6.50175C5.50601 5.70008 4.60685 5.16675 3.58268 5.16675C1.97435 5.16675 0.666016 6.47508 0.666016 8.08341C0.666016 9.69175 1.97435 11.0001 3.58268 11.0001ZM13.5827 12.6667C14.2718 12.6667 14.8327 13.2276 14.8327 13.9167C14.8327 14.6059 14.2718 15.1667 13.5827 15.1667C12.8935 15.1667 12.3327 14.6059 12.3327 13.9167C12.3327 13.2276 12.8935 12.6667 13.5827 12.6667ZM13.5827 1.83341C14.2718 1.83341 14.8327 2.39425 14.8327 3.08341C14.8327 3.77258 14.2718 4.33341 13.5827 4.33341C12.8935 4.33341 12.3327 3.77258 12.3327 3.08341C12.3327 2.39425 12.8935 1.83341 13.5827 1.83341ZM3.58268 6.83341C4.27185 6.83341 4.83268 7.39425 4.83268 8.08341C4.83268 8.77258 4.27185 9.33341 3.58268 9.33341C2.89352 9.33341 2.33268 8.77258 2.33268 8.08341C2.33268 7.39425 2.89352 6.83341 3.58268 6.83341Z" fill="#55626B"/>
</svg>
