<svg width="50" height="51" viewBox="0 0 50 51" fill="none" xmlns="http://www.w3.org/2000/svg">
<path d="M5.91695 49.0714H9.67463H21.5461H44.0824C44.4772 49.0714 44.7967 48.752 44.7967 48.3572V24.5506C45.9629 24.349 46.9921 23.6658 47.649 22.6331C48.3974 21.4577 48.5704 19.9734 48.1128 18.662L42.4376 2.4071C42.3372 2.12041 42.0665 1.92859 41.7631 1.92859H8.2342C7.93076 1.92859 7.66012 2.12041 7.55967 2.4078L1.88654 18.6627C1.42895 19.9741 1.60194 21.4584 2.34971 22.6331C3.00754 23.6663 4.03742 24.3496 5.20267 24.5508V48.3572C5.20267 48.752 5.52214 49.0714 5.91695 49.0714ZM10.3889 47.6429V33.2679C10.3889 33.127 10.504 33.0119 10.6449 33.0119H20.5766C20.7175 33.0119 20.8319 33.127 20.8319 33.2679V47.6429H10.3889ZM22.2604 47.6429V33.2679C22.2604 32.3387 21.505 31.5833 20.5766 31.5833H10.6449C9.71578 31.5833 8.96034 32.3387 8.96034 33.2679V47.6429H6.63124V24.563C7.94485 24.3638 9.07312 23.6009 9.76121 22.5259C10.5659 23.7827 11.9713 24.6197 13.5711 24.6197C15.1709 24.6197 16.5759 23.7828 17.3804 22.5261C18.1849 23.7828 19.5899 24.6197 21.1897 24.6197C22.7887 24.6197 24.1935 23.7835 24.9984 22.5279C25.8025 23.7842 27.2071 24.6211 28.8062 24.6211C30.4078 24.6211 31.8144 23.7844 32.6197 22.5281C33.4246 23.7837 34.8293 24.6197 36.4283 24.6197C38.028 24.6197 39.4331 23.7828 40.2375 22.5261C40.9258 23.6011 42.0543 24.3641 43.3681 24.5631V47.6429H22.2604ZM5.90457 11.4856H44.0937L45.1536 14.5214H4.84518L5.90457 11.4856ZM8.74131 3.35716H41.256L43.595 10.0571H6.40314L8.74131 3.35716ZM3.55507 21.8665C3.04028 21.0574 2.9203 20.0355 3.23559 19.1335L4.34661 15.9499H45.6523L46.7638 19.1335C47.0791 20.0348 46.9591 21.0567 46.4443 21.8665C45.9623 22.6233 45.2236 23.0879 44.3635 23.1751C44.2589 23.1863 44.1536 23.1911 44.0468 23.1911C42.3399 23.1911 40.9518 21.803 40.9518 20.0961C40.9518 19.7013 40.6324 19.3819 40.2375 19.3819C39.8427 19.3819 39.5233 19.7013 39.5233 20.0961C39.5233 21.803 38.1351 23.1911 36.4283 23.1911C34.7265 23.1911 33.3424 21.811 33.3341 20.1111C33.3341 20.1072 33.3346 20.1035 33.3346 20.0996C33.3346 19.9997 33.3136 19.9048 33.2766 19.8185C33.1684 19.5618 32.9145 19.3819 32.6183 19.3819C32.2235 19.3819 31.904 19.7013 31.904 20.0961C31.904 20.1015 31.9048 20.1068 31.9048 20.1122C31.8977 21.8118 30.5109 23.1925 28.8062 23.1925C27.1019 23.1925 25.7155 21.807 25.7136 20.1031C25.7136 20.1007 25.714 20.0985 25.714 20.0961C25.714 19.7013 25.3945 19.3819 24.9997 19.3819C24.6049 19.3819 24.2854 19.7013 24.2854 20.0961C24.2854 20.0974 24.2847 20.0984 24.2847 20.0996C24.2847 20.1004 24.2848 20.1011 24.2848 20.1019C24.2816 21.8062 22.8946 23.1911 21.1897 23.1911C19.4828 23.1911 18.0947 21.803 18.0947 20.0961C18.0947 19.7013 17.7752 19.3819 17.3804 19.3819C16.9856 19.3819 16.6661 19.7013 16.6661 20.0961C16.6661 21.803 15.278 23.1911 13.5711 23.1911C11.8642 23.1911 10.4754 21.803 10.4754 20.0961C10.4754 19.7013 10.1559 19.3819 9.76112 19.3819C9.36631 19.3819 9.04684 19.7013 9.04684 20.0961C9.04684 21.803 7.65872 23.1911 5.95183 23.1911C5.8458 23.1911 5.73978 23.1863 5.63445 23.1751C4.77577 23.0879 4.03707 22.6233 3.55507 21.8665Z" fill="#E8830D"/>
<path d="M19.1652 38.8705C19.56 38.8705 19.8795 38.551 19.8795 38.1562C19.8795 37.7614 19.56 37.4419 19.1652 37.4419H18.2612C17.8664 37.4419 17.5469 37.7614 17.5469 38.1562V41.9955C17.5469 42.3903 17.8664 42.7098 18.2612 42.7098H19.1652C19.56 42.7098 19.8795 42.3903 19.8795 41.9955C19.8795 41.6007 19.56 41.2812 19.1652 41.2812H18.9754V38.8705H19.1652ZM40.2387 29.9642H25.9962C25.6014 29.9642 25.2819 30.2837 25.2819 30.6785V40.3939C25.2819 40.7887 25.6014 41.1082 25.9962 41.1082H40.2387C40.6335 41.1082 40.953 40.7887 40.953 40.3939V30.6785C40.953 30.2837 40.6335 29.9642 40.2387 29.9642ZM39.5244 39.6796H26.7105V31.3928H39.5244V39.6796Z" fill="#E8830D"/>
<path d="M28.3016 38.2762C28.4411 38.4157 28.6239 38.4854 28.8066 38.4854C28.9894 38.4854 29.1722 38.4157 29.3117 38.2762L33.1489 34.439C33.4279 34.16 33.4279 33.708 33.1489 33.4289C32.8698 33.1499 32.4178 33.1499 32.1388 33.4289L28.3016 37.2661C28.0226 37.5451 28.0226 37.9972 28.3016 38.2762ZM28.1733 36.2226C28.356 36.2226 28.5388 36.1528 28.6783 36.0133L30.886 33.8056C31.165 33.5266 31.165 33.0746 30.886 32.7956C30.607 32.5165 30.155 32.5165 29.876 32.7956L27.6682 35.0033C27.3892 35.2823 27.3892 35.7343 27.6682 36.0133C27.8078 36.1528 27.9905 36.2226 28.1733 36.2226Z" fill="#E8830D"/>
</svg>
