<svg width="11" height="11" viewBox="0 0 11 11" fill="none" xmlns="http://www.w3.org/2000/svg">
<path d="M4.41754 2.36602C4.87639 1.2221 5.10582 0.650146 5.50034 0.650146C5.89486 0.650146 6.12429 1.2221 6.58314 2.36602L6.60451 2.41929C6.86374 3.06554 6.99335 3.38867 7.25751 3.58507C7.52168 3.78148 7.86844 3.81253 8.56198 3.87464L8.68736 3.88587C9.82242 3.98753 10.3899 4.03835 10.5114 4.39943C10.6328 4.7605 10.2113 5.14395 9.36841 5.91085L9.08708 6.1668C8.66036 6.55502 8.44701 6.74913 8.34756 7.00354C8.32901 7.051 8.31359 7.09962 8.3014 7.14909C8.23604 7.41431 8.29851 7.6959 8.42347 8.25909L8.46236 8.4344C8.69201 9.46943 8.80683 9.98694 8.60635 10.2102C8.53143 10.2936 8.43407 10.3536 8.32591 10.3831C8.03646 10.4621 7.62551 10.1273 6.80363 9.45754C6.26394 9.01778 5.9941 8.7979 5.68429 8.74843C5.56243 8.72897 5.43825 8.72897 5.31639 8.74843C5.00658 8.7979 4.73674 9.01778 4.19705 9.45754C3.37516 10.1273 2.96422 10.4621 2.67477 10.3831C2.56661 10.3536 2.46924 10.2936 2.39433 10.2102C2.19385 9.98694 2.30867 9.46943 2.53832 8.4344L2.57721 8.25909C2.70217 7.6959 2.76464 7.41431 2.69928 7.14909C2.68708 7.09962 2.67166 7.051 2.65311 7.00354C2.55367 6.74913 2.34031 6.55502 1.9136 6.1668L1.63227 5.91085C0.789329 5.14395 0.367858 4.7605 0.489295 4.39943C0.610733 4.03835 1.17826 3.98753 2.31332 3.88587L2.4387 3.87464C3.13223 3.81253 3.479 3.78148 3.74316 3.58507C4.00733 3.38867 4.13694 3.06554 4.39617 2.41929L4.41754 2.36602Z" fill="#E8830D"/>
</svg>
