<svg width="13" height="11" viewBox="0 0 13 11" fill="none" xmlns="http://www.w3.org/2000/svg">
<path d="M5.41754 2.36602C5.87639 1.2221 6.10582 0.650146 6.50034 0.650146C6.89486 0.650146 7.12429 1.2221 7.58314 2.36602L7.60451 2.41929C7.86374 3.06554 7.99335 3.38867 8.25751 3.58507C8.52168 3.78148 8.86844 3.81253 9.56198 3.87464L9.68736 3.88587C10.8224 3.98753 11.3899 4.03835 11.5114 4.39943C11.6328 4.7605 11.2113 5.14395 10.3684 5.91085L10.0871 6.1668C9.66036 6.55502 9.44701 6.74913 9.34756 7.00354C9.32901 7.051 9.31359 7.09962 9.3014 7.14909C9.23604 7.41431 9.29851 7.6959 9.42347 8.25909L9.46236 8.4344C9.69201 9.46943 9.80683 9.98694 9.60635 10.2102C9.53143 10.2936 9.43407 10.3536 9.32591 10.3831C9.03646 10.4621 8.62551 10.1273 7.80362 9.45754C7.26394 9.01778 6.9941 8.7979 6.68429 8.74843C6.56243 8.72897 6.43825 8.72897 6.31639 8.74843C6.00658 8.7979 5.73674 9.01778 5.19705 9.45754C4.37516 10.1273 3.96422 10.4621 3.67477 10.3831C3.56661 10.3536 3.46924 10.2936 3.39433 10.2102C3.19385 9.98694 3.30867 9.46943 3.53832 8.4344L3.57721 8.25909C3.70217 7.6959 3.76464 7.41431 3.69928 7.14909C3.68708 7.09962 3.67166 7.051 3.65311 7.00354C3.55367 6.74913 3.34031 6.55502 2.9136 6.1668L2.63227 5.91085C1.78933 5.14395 1.36786 4.7605 1.4893 4.39943C1.61073 4.03835 2.17826 3.98753 3.31332 3.88587L3.4387 3.87464C4.13223 3.81253 4.479 3.78148 4.74316 3.58507C5.00733 3.38867 5.13694 3.06554 5.39617 2.41929L5.41754 2.36602Z" stroke="#53585E"/>
</svg>
