<svg width="11" height="7" viewBox="0 0 11 7" fill="none" xmlns="http://www.w3.org/2000/svg">
<path d="M10.4253 5.36788C10.1996 5.08538 9.94285 4.83162 9.69428 4.58746C9.60611 4.49954 9.51467 4.40955 9.42692 4.32038C9.17426 4.06246 9.16489 3.96537 9.36489 3.67287C9.50325 3.47121 9.6502 3.26996 9.79183 3.07413C9.92081 2.89788 10.0539 2.71412 10.1812 2.53079L10.2077 2.49329C10.4514 2.14121 10.7037 1.77788 10.8376 1.33913C10.8727 1.2233 10.909 1.05329 10.8253 0.91037C10.742 0.767453 10.5796 0.724961 10.4649 0.704961C10.4082 0.694544 10.3518 0.693288 10.2996 0.693288L8.70284 0.692042H8.68979C8.44815 0.692042 8.28571 0.810379 8.19224 1.05538C8.10326 1.28788 8.00572 1.5362 7.89429 1.77245C7.67225 2.24204 7.39019 2.78329 6.98202 3.23454L6.96488 3.25371C6.91672 3.30788 6.86204 3.36954 6.82204 3.36954C6.81591 3.36954 6.80938 3.36829 6.80203 3.36579C6.71713 3.33079 6.6608 3.11788 6.66325 3.0183C6.66325 3.01746 6.66325 3.01621 6.66325 3.01454L6.66202 1.09037C6.66202 1.08454 6.66162 1.07788 6.6608 1.07121C6.6204 0.75871 6.53019 0.563289 6.19019 0.494123C6.18121 0.492039 6.17224 0.491211 6.16286 0.491211H4.50285C4.23224 0.491211 4.08324 0.605786 3.94324 0.777453C3.90529 0.82412 3.82651 0.918708 3.86569 1.03496C3.90528 1.15287 4.03346 1.17746 4.0755 1.18579C4.28326 1.22579 4.40041 1.35871 4.43347 1.5908C4.49143 1.99205 4.49836 2.42121 4.45592 2.93955C4.44408 3.08413 4.4204 3.19537 4.38163 3.29037C4.37265 3.31329 4.34081 3.38579 4.30816 3.38579C4.29796 3.38579 4.26816 3.38204 4.21347 3.34288C4.0849 3.24996 3.99061 3.11913 3.88081 2.95746C3.50694 2.40663 3.19345 1.79954 2.92162 1.10287C2.82121 0.845789 2.63305 0.702045 2.39183 0.697879C2.12693 0.693295 1.88652 0.691622 1.65754 0.691622C1.40734 0.691622 1.17509 0.694125 0.948561 0.699125C0.754683 0.702458 0.620402 0.763714 0.549789 0.879547C0.479177 0.99538 0.483675 1.14787 0.563267 1.33287C1.20245 2.81329 1.78163 3.88913 2.44163 4.82288C2.90408 5.47621 3.36775 5.92913 3.90122 6.24538C4.46326 6.57996 5.09305 6.7433 5.82652 6.7433C5.90937 6.7433 5.99551 6.74162 6.08204 6.73704C6.50857 6.71579 6.66651 6.55495 6.68651 6.12245C6.6959 5.90079 6.71917 5.66913 6.82366 5.47205C6.88937 5.34705 6.95061 5.34704 6.97061 5.34704C7.00939 5.34704 7.05795 5.36579 7.10938 5.40079C7.20203 5.46371 7.28163 5.54788 7.34694 5.62246C7.40816 5.69246 7.46898 5.76329 7.5298 5.83413C7.66082 5.98663 7.79633 6.14621 7.93796 6.29537C8.24816 6.62412 8.58939 6.76913 8.98164 6.73746H10.4457C10.4486 6.73746 10.4518 6.73704 10.4547 6.73704C10.6008 6.72662 10.7269 6.64287 10.8016 6.50537C10.8935 6.33579 10.8918 6.11913 10.7963 5.92746C10.6886 5.70829 10.5482 5.52163 10.4253 5.36788Z" fill="white"/>
</svg>
