<svg width="61" height="60" viewBox="0 0 61 60" fill="none" xmlns="http://www.w3.org/2000/svg">
<path d="M30.5008 38.112C27.8901 38.112 25.338 37.3378 23.1673 35.8874C20.9965 34.437 19.3047 32.3754 18.3056 29.9634C17.3065 27.5514 17.0451 24.8974 17.5544 22.3368C18.0637 19.7763 19.3209 17.4242 21.167 15.5782C23.013 13.7321 25.365 12.475 27.9256 11.9656C30.4861 11.4563 33.1402 11.7177 35.5522 12.7168C37.9642 13.7159 40.0258 15.4077 41.4762 17.5785C42.9266 19.7492 43.7008 22.3013 43.7008 24.912C43.697 28.4117 42.305 31.7669 39.8304 34.2416C37.3557 36.7163 34.0005 38.1082 30.5008 38.112ZM30.5008 14.112C28.3647 14.112 26.2767 14.7454 24.5006 15.9321C22.7246 17.1188 21.3403 18.8056 20.5229 20.779C19.7055 22.7525 19.4916 24.924 19.9083 27.019C20.325 29.114 21.3536 31.0383 22.864 32.5488C24.3744 34.0592 26.2988 35.0878 28.3938 35.5045C30.4888 35.9212 32.6603 35.7073 34.6338 34.8899C36.6072 34.0725 38.2939 32.6882 39.4807 30.9122C40.6674 29.1361 41.3008 27.048 41.3008 24.912C41.3008 22.0477 40.1629 19.3006 38.1375 17.2752C36.1121 15.2499 33.3651 14.112 30.5008 14.112ZM30.5008 41.856L30.4288 41.952C30.4496 41.9364 30.4748 41.928 30.5008 41.928C30.5268 41.928 30.552 41.9364 30.5728 41.952L30.5008 41.856Z" fill="#61D0B0"/>
<path d="M48.1409 21.24C47.5566 20.8099 47.0597 20.2723 46.6769 19.656C46.6184 18.8956 46.6998 18.131 46.9169 17.4C47.1909 16.7153 47.3155 15.98 47.2824 15.2433C47.2493 14.5065 47.0592 13.7854 46.7249 13.128C46.1989 12.6025 45.5678 12.194 44.873 11.9294C44.1782 11.6647 43.4353 11.5497 42.6929 11.592C41.943 11.5997 41.1995 11.4526 40.5089 11.16C40.0158 10.5916 39.6405 9.93075 39.4049 9.216C38.8289 7.872 38.1809 6.336 36.6929 5.856C35.9735 5.73672 35.2368 5.77357 34.5328 5.96406C33.8288 6.15454 33.1741 6.4942 32.6129 6.96C31.9794 7.41142 31.2609 7.72982 30.5009 7.896C29.741 7.72982 29.0225 7.41142 28.3889 6.96C27.8278 6.4942 27.173 6.15454 26.4691 5.96406C25.7651 5.77357 25.0284 5.73672 24.3089 5.856C22.8209 6.336 22.1729 7.872 21.5969 9.216C21.3614 9.93075 20.9861 10.5916 20.4929 11.16C19.8024 11.4526 19.0589 11.5997 18.3089 11.592C17.5666 11.5497 16.8237 11.6647 16.1289 11.9294C15.4341 12.194 14.803 12.6025 14.2769 13.128C13.9426 13.7854 13.7526 14.5065 13.7194 15.2433C13.6863 15.98 13.8109 16.7153 14.0849 17.4C14.3021 18.131 14.3835 18.8956 14.3249 19.656C13.9421 20.2723 13.4453 20.8099 12.8609 21.24C12.2211 21.6443 11.6756 22.1814 11.2615 22.815C10.8475 23.4485 10.5744 24.1637 10.4609 24.912C10.5744 25.6603 10.8475 26.3755 11.2615 27.009C11.6756 27.6426 12.2211 28.1797 12.8609 28.584C13.4453 29.0141 13.9421 29.5517 14.3249 30.168C14.3835 30.9283 14.3021 31.693 14.0849 32.424C13.8109 33.1087 13.6863 33.844 13.7194 34.5807C13.7526 35.3175 13.9426 36.0386 14.2769 36.696C14.7825 37.2151 15.3929 37.6206 16.0674 37.8855C16.742 38.1503 17.4652 38.2685 18.1889 38.232H18.3089C19.0589 38.2243 19.8024 38.3714 20.4929 38.664C20.5765 38.7234 20.6495 38.7964 20.7089 38.88C21.0769 39.4161 21.3753 39.9967 21.5969 40.608C22.1729 41.952 22.8209 43.488 24.3089 43.968C24.7982 44.1228 25.3192 44.1476 25.8209 44.04C26.738 43.7981 27.6067 43.4003 28.3889 42.864C29.0069 42.4368 29.6985 42.1276 30.4289 41.952L30.5009 41.856L30.5729 41.952C31.3034 42.1276 31.995 42.4368 32.6129 42.864C33.4006 43.3907 34.2676 43.7877 35.1809 44.04C35.4016 44.0889 35.627 44.1131 35.8529 44.112C36.1388 44.109 36.4224 44.0604 36.6929 43.968C38.1809 43.488 38.8289 41.952 39.4049 40.608C39.6266 39.9967 39.925 39.4161 40.2929 38.88C40.3524 38.7964 40.4254 38.7234 40.5089 38.664C41.1995 38.3714 41.943 38.2243 42.6929 38.232H42.8129C43.5367 38.2685 44.2599 38.1503 44.9344 37.8855C45.609 37.6206 46.2193 37.2151 46.7249 36.696C47.0592 36.0386 47.2493 35.3175 47.2824 34.5807C47.3155 33.844 47.1909 33.1087 46.9169 32.424C46.6998 31.693 46.6184 30.9283 46.6769 30.168C47.0597 29.5517 47.5566 29.0141 48.1409 28.584C48.7808 28.1797 49.3262 27.6426 49.7403 27.009C50.1544 26.3755 50.4275 25.6603 50.5409 24.912C50.4275 24.1637 50.1544 23.4485 49.7403 22.815C49.3262 22.1814 48.7808 21.6443 48.1409 21.24ZM46.5809 26.76C45.6351 27.4445 44.8827 28.3623 44.3969 29.424C44.1505 30.5965 44.2167 31.8132 44.5889 32.952C44.7809 33.792 45.0449 34.92 44.7809 35.28C44.5169 35.64 43.3409 35.76 42.4769 35.832C41.7384 35.8758 41.0065 35.9964 40.2929 36.192C40.2689 36.192 40.2449 36.216 40.2209 36.216C39.8144 36.3175 39.4313 36.4968 39.0929 36.744C38.2134 37.5257 37.5588 38.5283 37.1969 39.648C36.8609 40.464 36.4049 41.544 35.9489 41.688C35.5649 41.808 34.5569 41.232 33.8369 40.8C33.1925 40.3898 32.5092 40.0442 31.7969 39.768C31.7489 39.768 31.7249 39.744 31.7009 39.744C31.6119 39.6977 31.5133 39.673 31.4129 39.672C31.3889 39.648 31.3889 39.648 31.3649 39.648C30.8 39.488 30.2018 39.488 29.6369 39.648C29.6129 39.648 29.6129 39.648 29.5889 39.672C29.4886 39.673 29.3899 39.6977 29.3009 39.744C29.2769 39.744 29.2529 39.768 29.2049 39.768C28.4927 40.0442 27.8094 40.3898 27.1649 40.8C26.4449 41.232 25.4369 41.832 25.0529 41.688C24.5969 41.544 24.1409 40.464 23.8049 39.648C23.4431 38.5283 22.7885 37.5257 21.9089 36.744C21.6203 36.5277 21.2952 36.3651 20.9489 36.264C20.8216 36.199 20.6832 36.1583 20.5409 36.144C19.8796 35.9798 19.2049 35.8754 18.5249 35.832C17.6609 35.76 16.4849 35.64 16.2209 35.28C15.9569 34.92 16.2209 33.792 16.4129 32.952C16.7851 31.8132 16.8514 30.5965 16.6049 29.424C16.1192 28.3623 15.3668 27.4445 14.4209 26.76C13.7249 26.16 12.8609 25.392 12.8609 24.912C12.8609 24.432 13.7249 23.664 14.4209 23.04C15.3708 22.3699 16.1247 21.4586 16.6049 20.4C16.8514 19.2275 16.7851 18.0108 16.4129 16.872C16.2209 16.032 15.9569 14.904 16.2209 14.544C16.4849 14.184 17.6609 14.064 18.5249 13.992C19.7141 13.9952 20.8825 13.6803 21.9089 13.08C22.7885 12.2983 23.4431 11.2957 23.8049 10.176C24.1409 9.36 24.5969 8.28 25.0529 8.136C25.0889 8.11423 25.1314 8.10574 25.1729 8.112C25.8863 8.29391 26.5611 8.60284 27.1649 9.024C28.1461 9.73323 29.2966 10.1719 30.5009 10.296C31.7052 10.1719 32.8557 9.73323 33.8369 9.024C34.5569 8.592 35.5649 8.016 35.9489 8.136C36.4049 8.28 36.8609 9.36 37.1969 10.176C37.5588 11.2957 38.2134 12.2983 39.0929 13.08C40.1194 13.6803 41.2878 13.9952 42.4769 13.992C43.3409 14.064 44.5169 14.184 44.7809 14.544C45.0449 14.904 44.7809 16.032 44.5889 16.872C44.2167 18.0108 44.1505 19.2275 44.3969 20.4C44.8772 21.4586 45.6311 22.3699 46.5809 23.04C47.2769 23.664 48.1409 24.432 48.1409 24.912C48.1409 25.392 47.2769 26.16 46.5809 26.76Z" fill="#61D0B0"/>
<path d="M30.4281 41.952L21.3801 53.808C21.2674 53.9561 21.1223 54.0764 20.9558 54.1596C20.7894 54.2428 20.6061 54.2867 20.4201 54.288C20.3146 54.2838 20.2099 54.2677 20.1081 54.24C19.8798 54.1813 19.6738 54.0567 19.5159 53.8817C19.358 53.7067 19.2551 53.4891 19.2201 53.256L18.4761 47.712L12.9561 48.456C12.7213 48.4844 12.4834 48.4437 12.2714 48.3388C12.0595 48.2339 11.8828 48.0694 11.763 47.8656C11.6433 47.6617 11.5856 47.4273 11.5972 47.1911C11.6087 46.9549 11.689 46.7272 11.8281 46.536L18.1881 38.232H18.3081C19.058 38.2243 19.8015 38.3714 20.4921 38.664C20.5756 38.7234 20.6487 38.7964 20.7081 38.88L15.5001 45.696L19.3401 45.168C19.6574 45.1293 19.9773 45.2152 20.2325 45.4077C20.4877 45.6002 20.6582 45.8843 20.7081 46.2L21.2121 50.064L25.8201 44.04C26.7371 43.7981 27.6058 43.4003 28.3881 42.864C29.006 42.4368 29.6976 42.1276 30.4281 41.952ZM49.2441 47.856C49.1265 48.0642 48.9496 48.2325 48.7357 48.3394C48.5219 48.4463 48.2811 48.4869 48.0441 48.456L42.5241 47.712L41.7801 53.256C41.7451 53.4891 41.6422 53.7067 41.4842 53.8817C41.3263 54.0567 41.1204 54.1813 40.8921 54.24C40.7902 54.2677 40.6855 54.2838 40.5801 54.288C40.394 54.2867 40.2107 54.2428 40.0443 54.1596C39.8779 54.0764 39.7327 53.9561 39.6201 53.808L30.5721 41.952C31.3025 42.1276 31.9941 42.4368 32.6121 42.864C33.3997 43.3907 34.2667 43.7878 35.1801 44.04L39.7881 50.064L40.2921 46.2C40.3419 45.8843 40.5124 45.6002 40.7676 45.4077C41.0228 45.2152 41.3428 45.1293 41.6601 45.168L45.5001 45.696L40.2921 38.88C40.3515 38.7964 40.4245 38.7234 40.5081 38.664C41.1986 38.3714 41.9421 38.2243 42.6921 38.232H42.8121L49.1721 46.536C49.312 46.7248 49.3934 46.9505 49.4062 47.1852C49.419 47.4198 49.3626 47.6531 49.2441 47.856ZM34.3785 32.1384C34.1842 32.1385 33.993 32.0907 33.8217 31.9992L30.5001 30.2544L27.1785 31.9992C26.9805 32.1029 26.7576 32.1492 26.5347 32.133C26.3119 32.1168 26.098 32.0386 25.9171 31.9074C25.7362 31.7762 25.5956 31.5971 25.5111 31.3903C25.4265 31.1835 25.4014 30.9571 25.4385 30.7368L26.0721 27.0384L23.3865 24.42C23.226 24.2637 23.1125 24.0657 23.0588 23.8483C23.005 23.6309 23.0132 23.4027 23.0824 23.1897C23.1516 22.9767 23.279 22.7873 23.4502 22.6429C23.6214 22.4986 23.8296 22.405 24.0513 22.3728L27.7641 21.84L29.4249 18.48C29.5345 18.2907 29.692 18.1335 29.8816 18.0242C30.0711 17.9149 30.2861 17.8574 30.5049 17.8574C30.7237 17.8574 30.9386 17.9149 31.1282 18.0242C31.3177 18.1335 31.4752 18.2907 31.5849 18.48L33.2457 21.84L36.9585 22.38C37.1801 22.4122 37.3883 22.5058 37.5595 22.6501C37.7308 22.7945 37.8582 22.9839 37.9273 23.1969C37.9965 23.4099 38.0047 23.638 37.951 23.8555C37.8972 24.0729 37.7837 24.2709 37.6233 24.4272L34.9377 27.0456L35.5713 30.744C35.6006 30.9162 35.592 31.0927 35.5461 31.2612C35.5001 31.4297 35.418 31.5862 35.3053 31.7197C35.1926 31.8531 35.0522 31.9604 34.8937 32.034C34.7353 32.1075 34.5627 32.1456 34.3881 32.1456L34.3785 32.1384ZM30.5001 27.7008C30.694 27.7007 30.885 27.7477 31.0569 27.8376L32.7849 28.7448L32.4561 26.8248C32.4228 26.633 32.4366 26.436 32.4964 26.2508C32.5562 26.0656 32.6601 25.8977 32.7993 25.7616L34.1985 24.4008L32.2785 24.12C32.086 24.0917 31.9033 24.0171 31.7461 23.9026C31.5889 23.788 31.4619 23.6369 31.3761 23.4624L30.5121 21.7128L29.6481 23.4624C29.5622 23.6369 29.4352 23.788 29.278 23.9026C29.1208 24.0171 28.9381 24.0917 28.7457 24.12L26.8257 24.4008L28.2249 25.7616C28.364 25.8977 28.468 26.0656 28.5277 26.2508C28.5875 26.436 28.6014 26.633 28.5681 26.8248L28.2393 28.7448L29.9673 27.8376C30.1319 27.7514 30.3143 27.7045 30.5001 27.7008Z" fill="#61D0B0"/>
</svg>
