<svg width="61" height="60" viewBox="0 0 61 60" fill="none" xmlns="http://www.w3.org/2000/svg">
<g clip-path="url(#clip0_138_4128)">
<path d="M57.0481 35.7816L54.3838 34.8881V17.2725C54.3838 16.755 53.9647 16.335 53.4463 16.335H50.1191C49.6006 16.335 49.1816 16.755 49.1816 17.2725V33.1444L47.9966 32.7469V17.2716C47.9966 16.7541 47.5775 16.3341 47.0591 16.3341H43.7403C43.2219 16.3341 42.8028 16.7541 42.8028 17.2716V31.0041L41.6113 30.6047V17.2716C41.6113 16.7541 41.1922 16.3341 40.6738 16.3341H37.355C36.8366 16.3341 36.4175 16.7541 36.4175 17.2716V28.8628L34.9812 28.3809V23.4281C34.9812 23.1263 34.8359 22.8431 34.5912 22.6669C34.3456 22.4906 34.0325 22.4428 33.7456 22.5394L23.06 26.1263C22.8575 25.755 22.6175 25.4166 22.3344 25.1269C22.3634 24.7566 22.3784 24.3853 22.3784 24.0178C22.3784 21.1697 21.5647 18.2963 19.7469 18.2963C17.9291 18.2963 17.1153 21.1697 17.1153 24.0178C17.1153 24.3891 17.1303 24.7603 17.1584 25.1278C17.0384 25.2506 16.925 25.3819 16.82 25.5206C16.8247 25.41 16.8275 25.2984 16.8275 25.1869C16.8275 23.4356 16.1741 21.8016 15.0575 20.7094C15.1006 20.2022 15.1213 19.6838 15.1213 19.1597C15.1213 15.7097 14.1388 11.9963 11.9825 11.9963C9.82344 11.9963 8.84 15.7097 8.84 19.1597C8.84 19.6913 8.86156 20.2116 8.90562 20.7112C7.78906 21.8053 7.13375 23.4384 7.13375 25.1869C7.13375 25.5684 7.16562 25.9491 7.23031 26.3231C6.13344 27.1856 5.45562 28.6528 5.45562 30.2569C5.45562 30.8428 5.55406 31.4091 5.72562 31.9416L3.95 32.5378C3.56938 32.6672 3.3125 33.0253 3.3125 33.4275V47.0653C3.3125 47.5828 3.73156 48.0028 4.25 48.0028H56.75C57.2684 48.0028 57.6875 47.5828 57.6875 47.0653V36.6703C57.6875 36.2672 57.4306 35.9091 57.0481 35.7816ZM44.6787 22.0219H46.1225V32.1159L44.6787 31.6313V22.0219ZM46.1225 18.2091V20.1469H44.6787V18.2091H46.1225ZM38.2934 22.0219H39.7372V29.9747L38.2934 29.4881V22.0219ZM39.7372 18.2091V20.1469H38.2934V18.2091H39.7372ZM8.71156 27.5906C9.11 27.3881 9.30969 26.9334 9.18969 26.5031C9.07062 26.0756 9.01062 25.6331 9.01062 25.1869C9.01062 23.8069 9.55625 22.5516 10.4712 21.8288C10.7272 21.6263 10.8594 21.3047 10.8209 20.9812C10.7516 20.4075 10.7169 19.7944 10.7169 19.1597C10.7169 15.7988 11.6497 14.0109 11.9478 13.8656C12.3181 14.0109 13.2481 15.7988 13.2481 19.1597C13.2481 19.7841 13.2144 20.3991 13.1478 20.9888C13.1122 21.3103 13.2444 21.6291 13.4984 21.8297C14.4106 22.5506 14.9544 23.805 14.9544 25.1878C14.9544 25.6472 14.8953 26.0916 14.7791 26.5078C14.6591 26.9372 14.8578 27.3909 15.2553 27.5944C15.5431 27.7416 15.8084 27.9759 16.0259 28.275C16.0363 28.2919 16.0466 28.3088 16.0588 28.3247C16.0869 28.365 16.115 28.4063 16.1412 28.4494L7.49469 31.3481C7.38875 31.0078 7.33344 30.6403 7.33344 30.2588C7.33156 29.0822 7.88656 28.0106 8.71156 27.5906ZM17.9478 27.8409C17.9094 27.765 17.87 27.6909 17.8287 27.6187C18.0012 27.0506 18.3153 26.5603 18.7175 26.2416C18.9716 26.0409 19.1028 25.7231 19.0672 25.4016C19.0147 24.9478 18.9894 24.4828 18.9894 24.0188C18.9894 22.0041 19.4506 20.7178 19.7478 20.2856C20.0422 20.7159 20.5025 22.0013 20.5025 24.0188C20.5025 24.4772 20.4763 24.9422 20.4237 25.4016C20.3881 25.7241 20.5212 26.0428 20.7763 26.2434C20.9478 26.3784 21.1044 26.5453 21.2403 26.7366L19.2031 27.42L17.9478 27.8409ZM33.1062 46.1287H5.1875V34.1016L33.1062 24.7322V46.1287ZM52.5097 18.2091V20.1469H51.0575V18.2091H52.5097ZM51.0575 22.0219H52.5097V34.2591L51.0575 33.7716V22.0219ZM55.8125 46.1287H34.9812V30.3591L55.8125 37.3444V46.1287Z" fill="#61D0B0"/>
<path d="M39.3049 37.9491H36.498V40.5684H39.3049V37.9491Z" fill="#61D0B0"/>
<path d="M43.0585 37.9491H40.2441V40.5684H43.0585V37.9491Z" fill="#61D0B0"/>
<path d="M46.8055 37.9491H43.9902V40.5684H46.8055V37.9491Z" fill="#61D0B0"/>
<path d="M50.5501 37.9491H47.7441V40.5684H50.5501V37.9491Z" fill="#61D0B0"/>
<path d="M54.3055 37.9491H51.4902V40.5684H54.3055V37.9491Z" fill="#61D0B0"/>
<path d="M39.3049 41.6991H36.498V44.3184H39.3049V41.6991Z" fill="#61D0B0"/>
<path d="M43.0585 41.6991H40.2441V44.3184H43.0585V41.6991Z" fill="#61D0B0"/>
<path d="M46.8055 41.6991H43.9902V44.3184H46.8055V41.6991Z" fill="#61D0B0"/>
<path d="M50.5501 41.6991H47.7441V44.3184H50.5501V41.6991Z" fill="#61D0B0"/>
<path d="M54.3055 41.6991H51.4902V44.3184H54.3055V41.6991Z" fill="#61D0B0"/>
<path d="M14.927 37.9491H12.1211V40.5684H14.927V37.9491Z" fill="#61D0B0"/>
<path d="M11.1816 37.9491H8.36719V40.5684H11.1816V37.9491Z" fill="#61D0B0"/>
<path d="M18.6816 37.9491H15.8672V40.5684H18.6816V37.9491Z" fill="#61D0B0"/>
<path d="M22.427 37.9491H19.6211V40.5684H22.427V37.9491Z" fill="#61D0B0"/>
<path d="M26.1769 37.9491H23.3672V40.5684H26.1769V37.9491Z" fill="#61D0B0"/>
<path d="M29.9269 37.9491H27.1172V40.5684H29.9269V37.9491Z" fill="#61D0B0"/>
<path d="M14.927 41.6991H12.1211V44.3184H14.927V41.6991Z" fill="#61D0B0"/>
<path d="M11.1816 41.6991H8.36719V44.3184H11.1816V41.6991Z" fill="#61D0B0"/>
<path d="M18.6816 41.6991H15.8672V44.3184H18.6816V41.6991Z" fill="#61D0B0"/>
<path d="M22.427 41.6991H19.6211V44.3184H22.427V41.6991Z" fill="#61D0B0"/>
<path d="M26.1769 41.6991H23.3672V44.3184H26.1769V41.6991Z" fill="#61D0B0"/>
<path d="M29.9269 41.6991H27.1172V44.3184H29.9269V41.6991Z" fill="#61D0B0"/>
</g>
<defs>
<clipPath id="clip0_138_4128">
<rect width="60" height="60" fill="white" transform="translate(0.5)"/>
</clipPath>
</defs>
</svg>
