<svg width="46" height="45" viewBox="0 0 46 45" fill="none" xmlns="http://www.w3.org/2000/svg">
<path d="M22.0973 44.655C21.1583 44.655 19.9723 44.337 17.5973 43.029C16.2488 42.2846 14.9464 41.4594 13.6973 40.558L8.18234 42.212C8.032 42.257 7.87319 42.2659 7.71875 42.2381C7.56431 42.2103 7.41858 42.1466 7.29334 42.052C4.32047 39.8139 2.00115 36.8206 0.576345 33.383C0.515466 33.2363 0.490421 33.0772 0.503284 32.9188C0.516147 32.7605 0.566547 32.6075 0.650312 32.4725C0.734077 32.3375 0.848795 32.2245 0.984965 32.1426C1.12113 32.0608 1.27484 32.0126 1.43334 32.002C4.32872 31.8212 7.16524 31.1037 9.79834 29.886C10.7127 29.4598 11.5979 28.9737 12.4483 28.431C13.6256 27.6053 14.8708 26.8807 16.1703 26.265C16.9719 25.9156 17.7925 25.6118 18.6283 25.355C18.7033 25.335 18.8293 25.301 18.9923 25.253L19.1593 25.201C19.3203 25.151 19.4693 25.104 19.8243 25.011C20.1613 24.924 20.6143 24.814 21.1743 24.699C22.4427 24.395 23.7505 24.2884 25.0513 24.383C25.6326 24.4257 26.2077 24.5293 26.7673 24.692C27.5093 24.914 28.1743 25.185 28.8173 25.446C29.5081 25.742 30.2149 25.999 30.9343 26.216C31.5546 26.3936 32.1911 26.5085 32.8343 26.559C33.4713 26.62 34.2643 26.696 34.6083 27.538C34.7111 27.8228 34.7477 28.1272 34.7153 28.4281C34.6829 28.7291 34.5824 29.0187 34.4213 29.275C33.9828 30.1285 33.2688 30.8087 32.3952 31.2053C31.5215 31.6019 30.5394 31.6917 29.6083 31.46C29.3323 31.418 29.0813 31.37 28.8503 31.316C29.1941 31.5629 29.5543 31.7861 29.9283 31.984C31.3446 32.7304 32.9279 33.1031 34.5283 33.067L37.5483 33.066C37.7958 33.0662 38.0343 33.1581 38.2179 33.324C38.4015 33.4899 38.5171 33.7179 38.5423 33.964C38.6418 34.7721 38.5009 35.5916 38.1373 36.32C37.1873 38.162 34.8073 39.098 32.1253 38.718C30.0791 40.3125 27.9778 41.8351 25.8253 43.283C24.8123 44.0619 23.5982 44.5358 22.3253 44.649C22.2494 44.6529 22.1734 44.6549 22.0973 44.655ZM13.8863 38.457C14.1007 38.4572 14.3092 38.5263 14.4813 38.654C15.7812 39.6185 17.1443 40.4948 18.5613 41.277C21.1613 42.708 21.8763 42.669 22.2193 42.652C23.1308 42.554 23.995 42.1965 24.7093 41.622C26.9435 40.1192 29.1216 38.5348 31.2393 36.872C31.3521 36.7834 31.4827 36.7201 31.6221 36.6867C31.7616 36.6532 31.9066 36.6502 32.0473 36.678C33.9713 37.052 35.7853 36.516 36.3593 35.404C36.4148 35.2962 36.4591 35.1829 36.4913 35.066H34.5523C32.6848 35.1076 30.8359 34.6876 29.1697 33.8433C27.5034 32.999 26.0713 31.7565 25.0003 30.226C24.5725 30.1971 24.1432 30.1974 23.7153 30.227C23.5353 30.24 23.3853 30.255 23.2853 30.267C23.0219 30.2975 22.757 30.2221 22.5492 30.0574C22.3413 29.8926 22.2073 29.652 22.1768 29.3885C22.1463 29.125 22.2218 28.8602 22.3865 28.6523C22.5513 28.4445 22.7919 28.3105 23.0553 28.28C23.1753 28.266 23.3553 28.248 23.5773 28.232C24.2753 28.1846 24.9762 28.2004 25.6713 28.279L25.6903 28.281C26.4279 28.375 27.1479 28.5761 27.8273 28.878C28.4932 29.1692 29.1941 29.3726 29.9123 29.483C30.2694 29.5742 30.6403 29.599 31.0063 29.556C31.6153 29.3998 32.153 29.0412 32.5313 28.539C31.8042 28.4747 31.0849 28.3408 30.3833 28.139C29.595 27.9024 28.8204 27.622 28.0633 27.299C27.4363 27.043 26.8443 26.803 26.1933 26.608C25.7668 26.4847 25.3283 26.407 24.8853 26.376C23.7737 26.3002 22.657 26.3957 21.5743 26.659C21.0563 26.765 20.6373 26.867 20.3263 26.947C20.0213 27.027 19.8943 27.067 19.7563 27.109L19.5653 27.169C19.3753 27.225 19.2283 27.265 19.1683 27.28C18.4292 27.5106 17.7028 27.7803 16.9923 28.088C15.7974 28.6589 14.6518 29.3279 13.5673 30.088C12.6293 30.6893 11.6522 31.2272 10.6423 31.698C8.22359 32.8201 5.6422 33.5515 2.99434 33.865C4.22038 36.305 5.96269 38.4489 8.10034 40.148L13.5993 38.5C13.6925 38.4721 13.7891 38.458 13.8863 38.458V38.457Z" fill="#61D0B0"/>
<path d="M44.5 35H33.09C32.8248 35 32.5704 34.8946 32.3829 34.7071C32.1954 34.5196 32.09 34.2652 32.09 34C32.09 33.7348 32.1954 33.4804 32.3829 33.2929C32.5704 33.1054 32.8248 33 33.09 33H43.5V2H10.5V31.12C10.5 31.3852 10.3946 31.6396 10.2071 31.8271C10.0196 32.0146 9.76522 32.12 9.5 32.12C9.23478 32.12 8.98043 32.0146 8.79289 31.8271C8.60536 31.6396 8.5 31.3852 8.5 31.12V1C8.5 0.734784 8.60536 0.48043 8.79289 0.292893C8.98043 0.105357 9.23478 0 9.5 0H44.5C44.7652 0 45.0196 0.105357 45.2071 0.292893C45.3946 0.48043 45.5 0.734784 45.5 1V34C45.5 34.2652 45.3946 34.5196 45.2071 34.7071C45.0196 34.8946 44.7652 35 44.5 35Z" fill="#61D0B0"/>
<path d="M31 10H23C22.7348 10 22.4804 9.89464 22.2929 9.70711C22.1054 9.51957 22 9.26522 22 9V1C22 0.734784 22.1054 0.48043 22.2929 0.292893C22.4804 0.105357 22.7348 0 23 0H31C31.2652 0 31.5196 0.105357 31.7071 0.292893C31.8946 0.48043 32 0.734784 32 1V9C32 9.26522 31.8946 9.51957 31.7071 9.70711C31.5196 9.89464 31.2652 10 31 10ZM24 8H30V2H24V8Z" fill="#61D0B0"/>
</svg>
