<svg width="61" height="60" viewBox="0 0 61 60" fill="none" xmlns="http://www.w3.org/2000/svg">
<path d="M49.5 54H35.5C35.2348 54 34.9804 53.8946 34.7929 53.7071C34.6054 53.5196 34.5 53.2652 34.5 53V7C34.5 6.73478 34.6054 6.48043 34.7929 6.29289C34.9804 6.10536 35.2348 6 35.5 6H49.5C49.7652 6 50.0196 6.10536 50.2071 6.29289C50.3946 6.48043 50.5 6.73478 50.5 7V53C50.5 53.2652 50.3946 53.5196 50.2071 53.7071C50.0196 53.8946 49.7652 54 49.5 54ZM36.5 52H48.5V8H36.5V52Z" fill="#61D0B0"/>
<path d="M35.5 14.0001H40.5V16.0001H35.5V14.0001ZM35.5 20.0001H40.5V22.0001H35.5V20.0001ZM35.5 26.0001H40.5V28.0001H35.5V26.0001ZM35.5 32.0001H40.5V34.0001H35.5V32.0001ZM35.5 38.0001H40.5V40.0001H35.5V38.0001ZM35.5 44.0001H40.5V46.0001H35.5V44.0001ZM21.5 52.0001H17.5C14.743 52.0001 12.5 49.7571 12.5 47.0001V18.0001C12.5 17.8031 12.559 17.6091 12.668 17.4451L18.668 8.44509C19.039 7.88809 19.961 7.88809 20.332 8.44509L26.332 17.4451C26.441 17.6091 26.5 17.8031 26.5 18.0001V47.0001C26.5 49.7571 24.257 52.0001 21.5 52.0001ZM14.5 18.3031V47.0001C14.5 48.6541 15.846 50.0001 17.5 50.0001H21.5C23.154 50.0001 24.5 48.6541 24.5 47.0001V18.3031L19.5 10.8031L14.5 18.3031Z" fill="#61D0B0"/>
<path d="M25.5 46H13.5C13.2348 46 12.9804 45.8946 12.7929 45.7071C12.6054 45.5196 12.5 45.2652 12.5 45C12.5 44.7348 12.6054 44.4804 12.7929 44.2929C12.9804 44.1054 13.2348 44 13.5 44H25.5C25.7652 44 26.0196 44.1054 26.2071 44.2929C26.3946 44.4804 26.5 44.7348 26.5 45C26.5 45.2652 26.3946 45.5196 26.2071 45.7071C26.0196 45.8946 25.7652 46 25.5 46ZM25.5 42H13.5C13.2348 42 12.9804 41.8946 12.7929 41.7071C12.6054 41.5196 12.5 41.2652 12.5 41C12.5 40.7348 12.6054 40.4804 12.7929 40.2929C12.9804 40.1054 13.2348 40 13.5 40H25.5C25.7652 40 26.0196 40.1054 26.2071 40.2929C26.3946 40.4804 26.5 40.7348 26.5 41C26.5 41.2652 26.3946 41.5196 26.2071 41.7071C26.0196 41.8946 25.7652 42 25.5 42Z" fill="#61D0B0"/>
<path d="M17.5 42C17.2348 42 16.9804 41.8946 16.7929 41.7071C16.6054 41.5196 16.5 41.2652 16.5 41V22C16.5 21.7348 16.6054 21.4804 16.7929 21.2929C16.9804 21.1054 17.2348 21 17.5 21C17.7652 21 18.0196 21.1054 18.2071 21.2929C18.3946 21.4804 18.5 21.7348 18.5 22V41C18.5 41.2652 18.3946 41.5196 18.2071 41.7071C18.0196 41.8946 17.7652 42 17.5 42ZM21.5 42C21.2348 42 20.9804 41.8946 20.7929 41.7071C20.6054 41.5196 20.5 41.2652 20.5 41V22C20.5 21.7348 20.6054 21.4804 20.7929 21.2929C20.9804 21.1054 21.2348 21 21.5 21C21.7652 21 22.0196 21.1054 22.2071 21.2929C22.3946 21.4804 22.5 21.7348 22.5 22V41C22.5 41.2652 22.3946 41.5196 22.2071 41.7071C22.0196 41.8946 21.7652 42 21.5 42ZM16.5 13H22.5V15H16.5V13Z" fill="#61D0B0"/>
<path d="M16.5 23C14.294 23 12.5 21.206 12.5 19C12.5 18.7348 12.6054 18.4804 12.7929 18.2929C12.9804 18.1054 13.2348 18 13.5 18C13.7652 18 14.0196 18.1054 14.2071 18.2929C14.3946 18.4804 14.5 18.7348 14.5 19C14.5 20.103 15.397 21 16.5 21C17.603 21 18.5 20.103 18.5 19C18.5 18.7348 18.6054 18.4804 18.7929 18.2929C18.9804 18.1054 19.2348 18 19.5 18C19.7652 18 20.0196 18.1054 20.2071 18.2929C20.3946 18.4804 20.5 18.7348 20.5 19C20.5 21.206 18.706 23 16.5 23Z" fill="#61D0B0"/>
<path d="M22.5 23C20.294 23 18.5 21.206 18.5 19C18.5 18.7348 18.6054 18.4804 18.7929 18.2929C18.9804 18.1054 19.2348 18 19.5 18C19.7652 18 20.0196 18.1054 20.2071 18.2929C20.3946 18.4804 20.5 18.7348 20.5 19C20.5 20.103 21.397 21 22.5 21C23.603 21 24.5 20.103 24.5 19C24.5 18.7348 24.6054 18.4804 24.7929 18.2929C24.9804 18.1054 25.2348 18 25.5 18C25.7652 18 26.0196 18.1054 26.2071 18.2929C26.3946 18.4804 26.5 18.7348 26.5 19C26.5 21.206 24.706 23 22.5 23Z" fill="#61D0B0"/>
</svg>
