<svg width="61" height="60" viewBox="0 0 61 60" fill="none" xmlns="http://www.w3.org/2000/svg">
<path d="M29.5 22H43.5V33.9H45.5V22H47.5C47.7652 22 48.0196 21.8946 48.2071 21.7071C48.3946 21.5196 48.5 21.2652 48.5 21V17C48.5 16.7348 48.3946 16.4804 48.2071 16.2929C48.0196 16.1054 47.7652 16 47.5 16H39.74C40.2356 15.2604 40.5001 14.3902 40.5 13.5V12.5C40.4974 11.3073 40.0224 10.1643 39.1791 9.32094C38.3357 8.4776 37.1927 8.00264 36 8H35.5C34.0697 8.00128 32.6658 8.38602 31.4347 9.11415C30.2035 9.84228 29.1901 10.8872 28.5 12.14C27.8099 10.8872 26.7965 9.84228 25.5653 9.11415C24.3342 8.38602 22.9303 8.00128 21.5 8H21C19.8073 8.00264 18.6643 8.4776 17.8209 9.32094C16.9776 10.1643 16.5026 11.3073 16.5 12.5V13.5C16.4999 14.3902 16.7644 15.2604 17.26 16H9.5C9.23478 16 8.98043 16.1054 8.79289 16.2929C8.60536 16.4804 8.5 16.7348 8.5 17V21C8.5 21.2652 8.60536 21.5196 8.79289 21.7071C8.98043 21.8946 9.23478 22 9.5 22H11.5V47C11.5 47.7957 11.8161 48.5587 12.3787 49.1213C12.9413 49.6839 13.7044 50 14.5 50H33.5V48H29.5V22ZM35.5 10H36C36.663 10 37.2989 10.2634 37.7678 10.7322C38.2366 11.2011 38.5 11.837 38.5 12.5V13.5C38.5 14.163 38.2366 14.7989 37.7678 15.2678C37.2989 15.7366 36.663 16 36 16H29.5C29.5 14.4087 30.1321 12.8826 31.2574 11.7574C32.3826 10.6321 33.9087 10 35.5 10ZM18.5 13.5V12.5C18.5 11.837 18.7634 11.2011 19.2322 10.7322C19.7011 10.2634 20.337 10 21 10H21.5C23.0913 10 24.6174 10.6321 25.7426 11.7574C26.8679 12.8826 27.5 14.4087 27.5 16H21C20.337 16 19.7011 15.7366 19.2322 15.2678C18.7634 14.7989 18.5 14.163 18.5 13.5ZM10.5 18H46.5V20H10.5V18ZM13.5 47V22H27.5V48H14.5C14.2348 48 13.9804 47.8946 13.7929 47.7071C13.6054 47.5196 13.5 47.2652 13.5 47ZM43.5 35C41.72 35 39.9799 35.5278 38.4999 36.5168C37.0198 37.5057 35.8663 38.9113 35.1851 40.5559C34.5039 42.2004 34.3257 44.01 34.6729 45.7558C35.0202 47.5016 35.8774 49.1053 37.136 50.364C38.3947 51.6226 39.9984 52.4798 41.7442 52.8271C43.49 53.1743 45.2996 52.9961 46.9441 52.3149C48.5887 51.6337 49.9943 50.4802 50.9832 49.0001C51.9722 47.5201 52.5 45.78 52.5 44C52.5 41.6131 51.5518 39.3239 49.864 37.636C48.1761 35.9482 45.8869 35 43.5 35ZM43.5 51C42.1155 51 40.7622 50.5895 39.611 49.8203C38.4599 49.0511 37.5627 47.9579 37.0328 46.6788C36.503 45.3997 36.3644 43.9922 36.6345 42.6344C36.9046 41.2765 37.5713 40.0292 38.5503 39.0503C39.5292 38.0713 40.7765 37.4046 42.1344 37.1345C43.4922 36.8644 44.8997 37.003 46.1788 37.5328C47.4579 38.0627 48.5511 38.9599 49.3203 40.111C50.0895 41.2622 50.5 42.6155 50.5 44C50.5 45.8565 49.7625 47.637 48.4497 48.9497C47.137 50.2625 45.3565 51 43.5 51ZM46.79 39.29L48.21 40.71L40.21 48.71L38.79 47.29L46.79 39.29ZM42.5 42H40.5V40H42.5V42ZM44.5 46H46.5V48H44.5V46Z" fill="#61D0B0"/>
</svg>
