<svg width="61" height="60" viewBox="0 0 61 60" fill="none" xmlns="http://www.w3.org/2000/svg">
<path d="M39.5 53.2397C39.5 53.2397 30.0291 56 24.1377 56M21.5401 53.2397C21.5401 53.2397 31.0109 56 36.9022 56M11.1354 23.9431C13.3926 28.6689 10.8015 32.7123 10.5288 33.1178L10.4175 33.0295V33.0284C9.61344 32.4016 8.65446 31.8031 7.51438 31.2526C5.28003 29.1944 3.03805 25.2197 5.7328 18.1948C6.37102 18.6189 6.94925 19.0473 7.47183 19.4779V19.479C9.2676 20.9551 10.4131 22.4529 11.1092 23.8886V23.8897M22.9737 7.55061C21.718 15.3768 15.5997 16.3437 14.0309 16.4636C14.0287 16.4255 14.0254 16.3862 14.021 16.347C13.949 15.5261 13.7647 14.6496 13.433 13.7219C13.6043 10.6891 15.2353 5.98298 23.1941 4C23.2246 5.31799 23.1428 6.49644 22.9737 7.55061V7.55061Z" stroke="#61D0B0" stroke-width="2" stroke-miterlimit="10" stroke-linecap="round" stroke-linejoin="round"/>
<path d="M10.5383 33.5871C15.473 37.4256 14.6054 42.2975 14.1019 44C13.7794 43.9091 13.4422 43.827 13.0916 43.7537C12.2735 43.5807 11.3789 43.4537 10.4012 43.3803C7.70627 41.8344 4.61015 38.4229 5.73846 31C6.31333 31.2148 6.87873 31.453 7.43318 31.7138C8.60757 32.2667 9.59541 32.8678 10.4237 33.4973V33.4984" stroke="#61D0B0" stroke-width="2" stroke-miterlimit="10" stroke-linecap="round" stroke-linejoin="round"/>
<path d="M14.395 16.3741C14.6933 20.3137 12.4067 22.9426 11.5271 23.7998C11.5195 23.7825 11.5109 23.7641 11.5012 23.7468V23.7457C10.8117 22.3203 9.67709 20.8332 7.8984 19.3677V19.3667C7.09118 16.7518 7.27488 13.1001 10.6939 8.52731C12.2652 10.3705 13.2442 12.0849 13.8029 13.6521C14.1314 14.5731 14.314 15.4433 14.3853 16.2583M49.9277 23.7998C47.6919 28.4916 50.2584 32.5059 50.5286 32.9086L50.6388 32.8209V32.8198C51.4352 32.1975 52.385 31.6033 53.5143 31.0567C55.7274 29.0133 57.948 25.0672 55.2789 18.0928C54.6468 18.5138 54.074 18.9392 53.5564 19.3667V19.3677C51.7777 20.8332 50.6431 22.3203 49.9537 23.7457V23.7468M21.8351 52.8567C21.834 52.8761 21.8329 52.8859 21.8329 52.8859C21.8329 52.8859 12.3051 54.8427 10.1861 42.5509C10.3925 42.5617 10.5956 42.5747 10.7944 42.5898C11.7346 42.6624 12.5947 42.7879 13.3814 42.9589C13.7186 43.0314 14.0428 43.1126 14.3529 43.2024C22.1398 45.4266 21.8653 52.3545 21.8351 52.8567V52.8567ZM38.202 7.52509C39.4458 15.295 45.5059 16.255 47.0598 16.3741C47.062 16.3362 47.0652 16.2972 47.0695 16.2583C47.1408 15.4433 47.3235 14.5731 47.652 13.6521C47.4823 10.6411 45.8668 5.96873 37.9837 4C37.9535 5.30852 38.0345 6.47849 38.202 7.52509V7.52509Z" stroke="#61D0B0" stroke-width="2" stroke-miterlimit="10" stroke-linecap="round" stroke-linejoin="round"/>
<path d="M50.4617 33.5871C45.527 37.4256 46.3946 42.2975 46.8981 44C47.2206 43.9091 47.5578 43.827 47.9084 43.7537C48.7265 43.5807 49.6211 43.4537 50.5988 43.3803C53.2937 41.8344 56.3899 38.4229 55.2615 31C54.6867 31.2148 54.1213 31.453 53.5668 31.7138C52.3924 32.2667 51.4046 32.8678 50.5763 33.4973V33.4984" stroke="#61D0B0" stroke-width="2" stroke-miterlimit="10" stroke-linecap="round" stroke-linejoin="round"/>
<path d="M46.7699 16.7634C46.4788 20.6611 48.7107 23.2621 49.5693 24.1102C49.5766 24.093 49.5851 24.0748 49.5946 24.0577V24.0566C50.2675 22.6464 51.375 21.1751 53.1111 19.7252V19.7241C53.899 17.1371 53.7197 13.5242 50.3825 9C48.8489 10.8236 47.8932 12.5197 47.3479 14.0703C47.0273 14.9815 46.849 15.8425 46.7794 16.6488M39.5079 52.8582C39.509 52.8774 39.51 52.8871 39.51 52.8871C39.51 52.8871 48.8098 54.8231 50.8782 42.6619C50.6768 42.6726 50.4785 42.6855 50.2844 42.7005C49.3667 42.7722 48.5272 42.8964 47.7593 43.0656C47.4302 43.1374 47.1138 43.2177 46.8111 43.3066C39.2105 45.5071 39.4784 52.3613 39.5079 52.8582Z" stroke="#61D0B0" stroke-width="2" stroke-miterlimit="10" stroke-linecap="round" stroke-linejoin="round"/>
<path d="M26.5966 23.4545H28.5966V21.4545H26.5966V23.4545ZM26.5966 38V40H28.5966V38H26.5966ZM22.6477 38H20.6477V40H22.6477V38ZM22.6477 27.0909H24.6477V25.0909H22.6477V27.0909ZM22.5625 27.0909V25.0909H22.0099L21.5358 25.3746L22.5625 27.0909ZM19.3807 28.9943H17.3807V32.5213L20.4074 30.7107L19.3807 28.9943ZM19.3807 25.642L18.3378 23.9355L17.3807 24.5204V25.642H19.3807ZM22.9602 23.4545V21.4545H22.3975L21.9173 21.748L22.9602 23.4545ZM24.5966 23.4545V38H28.5966V23.4545H24.5966ZM26.5966 36H22.6477V40H26.5966V36ZM24.6477 38V27.0909H20.6477V38H24.6477ZM22.6477 25.0909H22.5625V29.0909H22.6477V25.0909ZM21.5358 25.3746L18.3539 27.278L20.4074 30.7107L23.5892 28.8072L21.5358 25.3746ZM21.3807 28.9943V25.642H17.3807V28.9943H21.3807ZM20.4236 27.3486L24.0031 25.1611L21.9173 21.748L18.3378 23.9355L20.4236 27.3486ZM22.9602 25.4545H26.5966V21.4545H22.9602V25.4545ZM29.4411 35.7273H27.4411V37.7273H29.4411V35.7273ZM29.4411 32.6591L27.7533 31.586L27.4411 32.0771V32.6591H29.4411ZM35.2933 23.4545V21.4545H34.1949L33.6056 22.3815L35.2933 23.4545ZM38.0774 23.4545H40.0774V21.4545H38.0774V23.4545ZM38.0774 27.5455V29.5455H40.0774V27.5455H38.0774ZM36.4865 27.5455V25.5455H35.3833L34.7948 26.4786L36.4865 27.5455ZM33.3331 32.5455L31.6414 31.4786L31.3331 31.9674V32.5455H33.3331ZM33.3331 32.6591H31.3331V34.6591H33.3331V32.6591ZM41.9695 32.6591H43.9695V30.6591H41.9695V32.6591ZM41.9695 35.7273V37.7273H43.9695V35.7273H41.9695ZM36.5149 38H34.5149V40H36.5149V38ZM36.5149 34.7898L34.519 34.6624L34.5149 34.726V34.7898H36.5149ZM36.6001 33.4545L38.5961 33.5819L38.6001 33.5183V33.4545H36.6001ZM36.6001 23.4545V21.4545H34.6001V23.4545H36.6001ZM40.2933 23.4545H42.2933V21.4545H40.2933V23.4545ZM40.2933 38V40H42.2933V38H40.2933ZM31.4411 35.7273V32.6591H27.4411V35.7273H31.4411ZM31.1288 33.7322L36.9811 24.5276L33.6056 22.3815L27.7533 31.586L31.1288 33.7322ZM35.2933 25.4545H38.0774V21.4545H35.2933V25.4545ZM36.0774 23.4545V27.5455H40.0774V23.4545H36.0774ZM38.0774 25.5455H36.4865V29.5455H38.0774V25.5455ZM34.7948 26.4786L31.6414 31.4786L35.0248 33.6124L38.1782 28.6124L34.7948 26.4786ZM31.3331 32.5455V32.6591H35.3331V32.5455H31.3331ZM33.3331 34.6591H41.9695V30.6591H33.3331V34.6591ZM39.9695 32.6591V35.7273H43.9695V32.6591H39.9695ZM41.9695 33.7273H29.4411V37.7273H41.9695V33.7273ZM38.5149 38V34.7898H34.5149V38H38.5149ZM38.5109 34.9172L38.5961 33.5819L34.6042 33.3271L34.519 34.6624L38.5109 34.9172ZM38.6001 33.4545V23.4545H34.6001V33.4545H38.6001ZM36.6001 25.4545H40.2933V21.4545H36.6001V25.4545ZM38.2933 23.4545V38H42.2933V23.4545H38.2933ZM40.2933 36H36.5149V40H40.2933V36Z" fill="#61D0B0"/>
</svg>
