<svg width="12" height="14" viewBox="0 0 12 14" fill="none" xmlns="http://www.w3.org/2000/svg">
<path fill-rule="evenodd" clip-rule="evenodd" d="M11.3066 6.717C11.2456 6.43807 11.0958 6.18646 10.8796 6C10.6673 5.81045 10.4014 5.69148 10.1186 5.6595C9.20825 5.5625 7.83525 5.51417 5.99959 5.5145C4.16392 5.51483 2.79325 5.56317 1.88759 5.6595C1.60374 5.69187 1.33675 5.8109 1.12293 6.00038C0.909117 6.18986 0.758856 6.4406 0.692587 6.7185C0.540652 7.55538 0.475972 8.40577 0.499587 9.256C0.473988 10.1069 0.538682 10.9582 0.692587 11.7955C0.756473 12.0724 0.905257 12.3225 1.11816 12.5107C1.33105 12.699 1.59743 12.816 1.88009 12.8455C3.24976 12.9667 4.62469 13.0182 5.99959 13C7.37428 13.0189 8.74905 12.968 10.1186 12.8475C10.4004 12.8209 10.666 12.7037 10.8756 12.5135C11.0905 12.3251 11.241 12.0742 11.3061 11.796C11.4583 10.9583 11.5232 10.1071 11.4996 9.256C11.5251 8.40523 11.4604 7.55415 11.3066 6.717ZM3.63959 7.45H2.84509V11.5775H2.10309V7.45H1.32359V6.7685H3.63959V7.45ZM5.64359 11.5775H4.98259V11.1855C4.89386 11.3076 4.78079 11.4101 4.6505 11.4863C4.52021 11.5625 4.37553 11.611 4.22559 11.6285C4.13385 11.6404 4.04081 11.6202 3.96232 11.5712C3.88383 11.5223 3.82473 11.4476 3.79509 11.36C3.74849 11.1875 3.72843 11.009 3.73559 10.8305V7.994H4.39609V10.635C4.39312 10.7197 4.39562 10.8046 4.40359 10.889C4.40357 10.9092 4.40764 10.9292 4.41555 10.9478C4.42346 10.9664 4.43505 10.9832 4.44962 10.9972C4.46419 11.0113 4.48144 11.0222 4.50034 11.0294C4.51924 11.0365 4.53939 11.0398 4.55959 11.039C4.64863 11.024 4.73306 10.9888 4.80639 10.9361C4.87971 10.8834 4.93999 10.8146 4.98259 10.735V7.994H5.64309V11.5775H5.64359ZM8.16709 10.504C8.17883 10.7478 8.15645 10.9919 8.10059 11.2295C8.07426 11.3477 8.00686 11.4528 7.91037 11.5261C7.81388 11.5993 7.69455 11.6359 7.57359 11.6295C7.43595 11.6185 7.30251 11.5769 7.18304 11.5077C7.06356 11.4385 6.96108 11.3434 6.88309 11.2295V11.5795H6.22259V6.7685H6.88309V8.3425C6.96059 8.2288 7.06314 8.13438 7.18285 8.06651C7.30255 7.99864 7.43622 7.95913 7.57359 7.951C7.69539 7.94515 7.8153 7.98283 7.91186 8.05731C8.00842 8.13179 8.07532 8.2382 8.10059 8.3575C8.15693 8.59243 8.17932 8.83422 8.16709 9.0755V10.5045V10.504ZM10.6756 9.9095H9.34709V10.54C9.34709 10.8733 9.46092 11.04 9.68859 11.04C9.76246 11.0443 9.83504 11.0193 9.89062 10.9704C9.94621 10.9216 9.98032 10.8528 9.98559 10.779C9.99951 10.6321 10.0042 10.4845 9.99959 10.337H10.6751V10.4315C10.6795 10.5718 10.6745 10.7123 10.6601 10.852C10.641 10.9933 10.5875 11.1278 10.5041 11.2435C10.4146 11.3705 10.2941 11.4725 10.1541 11.5398C10.0141 11.6071 9.85915 11.6374 9.70409 11.628C9.55089 11.6346 9.39834 11.6045 9.25917 11.5401C9.11999 11.4758 8.99824 11.379 8.90409 11.258C8.74102 11.0091 8.66538 10.7131 8.68909 10.4165V9.1615C8.66577 8.86597 8.73855 8.57081 8.89659 8.32C8.99321 8.20419 9.11409 8.11103 9.25069 8.0471C9.38729 7.98317 9.53627 7.95003 9.68709 7.95003C9.83791 7.95003 9.98688 7.98317 10.1235 8.0471C10.2601 8.11103 10.381 8.20419 10.4776 8.32C10.6305 8.57271 10.7005 8.86699 10.6776 9.1615V9.909L10.6756 9.9095ZM7.21709 8.538C7.15361 8.5413 7.09141 8.55714 7.03409 8.5846C6.97676 8.61207 6.92544 8.65061 6.88309 8.698V10.8815C6.92545 10.9288 6.97678 10.9673 7.03411 10.9947C7.09144 11.0221 7.15363 11.0378 7.21709 11.041C7.41009 11.041 7.50659 10.8792 7.50659 10.5555V9.024C7.50625 8.7 7.40959 8.538 7.21659 8.538H7.21709ZM9.68109 8.538C9.45842 8.538 9.34709 8.70233 9.34709 9.031V9.365H10.0151V9.031C10.0151 8.70233 9.90375 8.538 9.68109 8.538ZM3.20909 2.894V4.86H3.94959V2.894L4.84959 0H4.09209L3.58759 1.9075L3.06059 0H2.27409C2.41275 0.406333 2.57359 0.8585 2.75659 1.3565C2.94127 1.85843 3.09243 2.37205 3.20909 2.894ZM5.84359 4.9105C5.99501 4.91833 6.14603 4.88866 6.28323 4.82412C6.42043 4.75957 6.53958 4.66215 6.63009 4.5405C6.78942 4.28486 6.86234 3.98476 6.83809 3.6845V2.4155C6.862 2.11717 6.78906 1.81908 6.63009 1.5655C6.53501 1.44981 6.41548 1.35663 6.2801 1.29266C6.14471 1.22868 5.99683 1.1955 5.84709 1.1955C5.69735 1.1955 5.54946 1.22868 5.41408 1.29266C5.27869 1.35663 5.15916 1.44981 5.06409 1.5655C4.90512 1.81908 4.83217 2.11717 4.85609 2.4155V3.685C4.83324 3.98514 4.90605 4.28481 5.06409 4.541C5.15425 4.66126 5.27234 4.75774 5.40815 4.82212C5.54397 4.8865 5.69342 4.91683 5.84359 4.9105ZM5.52459 2.285C5.52459 1.95167 5.63092 1.785 5.84359 1.785C6.05625 1.785 6.16259 1.95167 6.16259 2.285V3.808C6.16259 4.14667 6.05625 4.316 5.84359 4.316C5.63092 4.316 5.52459 4.14667 5.52459 3.808V2.285ZM7.88459 4.911C8.03672 4.89477 8.18362 4.84623 8.31547 4.76862C8.44732 4.69101 8.56106 4.58613 8.64909 4.461V4.861H9.32459V1.24H8.64959V4.004C8.6079 4.08509 8.54802 4.15544 8.47465 4.20957C8.40127 4.26369 8.31637 4.30012 8.22659 4.316C8.20571 4.31636 8.18497 4.31245 8.16565 4.30451C8.14633 4.29658 8.12883 4.28478 8.11423 4.26985C8.09963 4.25492 8.08822 4.23717 8.08072 4.21768C8.07322 4.19819 8.06977 4.17737 8.07059 4.1565C8.06222 4.07211 8.05971 3.98724 8.06309 3.9025V1.24H7.38759V4.1C7.37988 4.2833 7.39994 4.4667 7.44709 4.644C7.47937 4.73118 7.54013 4.80491 7.61953 4.85328C7.69892 4.90164 7.79231 4.9218 7.88459 4.9105V4.911Z" fill="white"/>
</svg>
