<svg width="111" height="106" viewBox="0 0 111 106" fill="none" xmlns="http://www.w3.org/2000/svg">
<path opacity="0.2" d="M56.64 21.04C56.64 31.0667 54.08 38.7467 48.96 44.08C43.84 49.4133 36.96 52.08 28.32 52.08C19.68 52.08 12.8 49.4133 7.68 44.08C2.56 38.7467 0 31.0667 0 21.04C0 11.0133 2.56 3.33334 7.68 -2C12.8 -7.33333 19.68 -10 28.32 -10C36.96 -10 43.84 -7.33333 48.96 -2C54.08 3.33334 56.64 11.0133 56.64 21.04ZM38.56 21.04C38.56 15.6 37.6 11.6533 35.68 9.2C33.76 6.74667 31.3067 5.52 28.32 5.52C25.2267 5.52 22.72 6.74667 20.8 9.2C18.9867 11.6533 18.08 15.6 18.08 21.04C18.08 26.48 18.9867 30.48 20.8 33.04C22.72 35.4933 25.2267 36.72 28.32 36.72C31.3067 36.72 33.76 35.4933 35.68 33.04C37.6 30.48 38.56 26.48 38.56 21.04ZM87.84 -7.43999H110.08L47.52 103.44H25.28L87.84 -7.43999ZM135.68 74.96C135.68 84.9867 133.12 92.6667 128 98C122.88 103.333 116 106 107.36 106C98.72 106 91.84 103.333 86.72 98C81.6 92.6667 79.04 84.9867 79.04 74.96C79.04 64.9333 81.6 57.2533 86.72 51.92C91.84 46.5867 98.72 43.92 107.36 43.92C116 43.92 122.88 46.5867 128 51.92C133.12 57.2533 135.68 64.9333 135.68 74.96ZM117.6 74.96C117.6 69.52 116.64 65.5733 114.72 63.12C112.8 60.6667 110.347 59.44 107.36 59.44C104.267 59.44 101.76 60.6667 99.84 63.12C98.0267 65.5733 97.12 69.52 97.12 74.96C97.12 80.4 98.0267 84.4 99.84 86.96C101.76 89.4133 104.267 90.64 107.36 90.64C110.347 90.64 112.8 89.4133 114.72 86.96C116.64 84.4 117.6 80.4 117.6 74.96Z" fill="#44A68A"/>
</svg>
