<svg width="216" height="70" viewBox="0 0 216 70" fill="none" xmlns="http://www.w3.org/2000/svg">
<path d="M82.9144 15.7931C82.9144 17.3642 82.4392 19.2942 81.4913 21.5782C80.0193 25.1973 78.5252 28.8163 77.0091 32.4354C75.1109 37.4362 74.163 41.0552 74.163 43.2926C74.163 45.0062 74.8023 45.8643 76.0833 45.8643C76.7936 45.8643 77.7071 45.4586 78.8216 44.6497C79.936 43.8384 80.5875 43.4352 80.7786 43.4352C80.9672 43.4352 81.0627 43.5532 81.0627 43.7917C81.0627 44.7431 80.4112 45.5766 79.1057 46.2921C77.8002 47.0075 76.6515 47.364 75.6546 47.364C72.9506 47.364 71.5986 45.7684 71.5986 42.5771C71.5986 40.4824 72.1669 37.6968 73.3058 34.2203C74.2071 31.6486 75.5126 28.4107 77.2197 24.5064C77.8835 23.2206 78.7383 21.2684 79.7817 18.65C80.2079 17.3642 80.4234 16.4127 80.4234 15.7931C80.4234 15.2695 80.2569 15.0064 79.9262 15.0064C77.5063 15.0064 73.1907 18.4115 66.9743 25.2219C62.4676 30.1759 58.7202 34.7932 55.7321 39.0785C54.7818 40.4603 54.0004 41.6502 53.3832 42.6509C53.1456 43.1746 52.766 43.745 52.2443 44.3645C52.0533 44.4112 51.8647 44.4358 51.6761 44.4358C50.253 44.4358 49.5403 43.8654 49.5403 42.7222C49.5403 42.4837 49.6236 42.2452 49.7901 42.0092C49.9567 41.7707 50.8458 39.9612 52.4574 36.5806C57.2482 26.5815 59.6436 19.3901 59.6436 15.0088C59.6436 13.01 59.0264 12.0094 57.7944 12.0094C55.8031 12.0094 52.4819 14.5565 47.8331 19.6531C42.5671 25.4628 37.6318 32.2018 33.032 39.8677C32.5103 40.7725 31.9886 41.6527 31.4669 42.5107C30.7077 43.7007 30.0904 44.485 29.6177 44.8685C28.5253 44.8685 27.9816 44.3449 27.9816 43.2975C27.9816 42.9631 28.0771 42.6779 28.2657 42.4394C30.8742 39.2506 33.6983 34.2007 36.7329 27.2969C40.0542 19.8695 41.7148 14.3917 41.7148 10.8686C41.7148 6.10626 39.1063 3.72634 33.8868 3.72634C31.1363 3.72634 27.8151 4.4172 23.9256 5.79648C21.3171 6.75041 18.6473 7.96496 15.9213 9.44012C13.1928 10.9177 10.621 12.5822 8.20111 14.4409C4.59575 17.2511 2.79307 19.5597 2.79307 21.3692C2.79307 24.0368 5.37708 25.3694 10.55 25.3694C11.5934 25.3694 13.134 25.2145 15.1742 24.9047C17.2145 24.5949 18.7331 24.44 19.7275 24.44C20.1071 24.44 20.2957 24.5359 20.2957 24.7252C20.2957 24.917 20.1757 25.0817 19.9406 25.2243C18.3265 26.3676 15.647 26.938 11.8995 26.938C9.19552 26.938 6.87114 26.5569 4.92641 25.7947C2.27137 24.7474 0.941406 23.0558 0.941406 20.7226C0.941406 18.2468 2.71959 15.5792 6.27842 12.7223C8.69832 10.7702 11.5664 8.98528 14.8877 7.36506C17.6872 6.0325 20.5553 4.91384 23.4969 4.00908C27.6705 2.7724 31.3959 2.15283 34.6682 2.15283C41.5948 2.15283 45.0581 4.79583 45.0581 10.0818C45.0581 14.3672 43.3509 19.8203 39.9342 26.4389C42.6382 23.2009 45.3422 19.9383 48.0462 16.6537C52.1243 12.2257 55.328 10.0105 57.6523 10.0105C60.4984 10.0105 61.9215 12.1544 61.9215 16.4397C61.9215 20.1547 60.4739 25.5366 57.5813 32.5829C60.7115 29.0597 64.1503 25.4874 67.9002 21.8683C73.2127 16.8208 76.9601 13.9394 79.1424 13.2264C79.7572 13.0371 80.2814 12.9412 80.7075 12.9412C82.1771 12.9362 82.9144 13.8902 82.9144 15.7931Z" fill="#293235"/>
<path d="M108.674 33.8685C108.674 34.1095 108.532 34.4438 108.248 34.8765C106.158 38.2866 104.191 40.4723 102.342 41.4312C101.487 41.8639 100.635 42.0802 99.7803 42.0802C96.8852 42.0802 95.4402 40.015 95.4402 35.8846C95.4402 35.2134 95.4867 34.4905 95.5822 33.7235C92.403 39.3905 89.579 42.2228 87.1126 42.2228C85.643 42.2228 84.9082 41.414 84.9082 39.7937C84.9082 37.3179 86.0937 34.3283 88.4646 30.8297C90.8355 27.3286 93.1378 25.1995 95.3667 24.4373C96.1725 24.1054 96.9563 23.9382 97.7131 23.9382C99.4203 23.9382 100.655 24.5332 101.414 25.7232C101.556 25.9617 101.627 26.1288 101.627 26.2223C101.627 26.2714 101.461 26.3427 101.13 26.4362C100.797 26.5321 100.559 26.6992 100.42 26.9353C99.2807 28.7915 98.7124 31.5771 98.7124 35.292C98.7124 38.7193 99.4472 40.4354 100.919 40.4354C101.963 40.4354 103.444 39.2824 105.367 36.9713C107.29 34.6626 108.321 33.5071 108.463 33.5071C108.605 33.5071 108.674 33.6276 108.674 33.8685ZM98.2128 26.3649C98.0217 26.3182 97.8086 26.2936 97.5711 26.2936C95.6728 26.2936 93.7036 27.5081 91.6658 29.9372C88.7707 33.4628 87.3257 36.3419 87.3257 38.5792C87.3257 39.5798 87.6588 40.0789 88.3225 40.0789C89.3659 40.0789 90.7179 38.9849 92.3785 36.7942C94.7005 33.8415 96.6477 30.365 98.2128 26.3649Z" fill="#293235"/>
<path d="M123.972 33.6497C123.972 33.8415 123.877 34.0775 123.688 34.3652C122.454 36.0788 120.534 37.8416 117.925 39.6512C115.03 41.6033 112.659 42.5793 110.81 42.5793C108.106 42.5793 106.754 40.6051 106.754 36.6517C106.754 33.6055 107.606 30.3183 109.316 26.7951C105.995 26.7951 104.334 26.178 104.334 24.9389C104.334 24.6537 104.572 24.5111 105.044 24.5111C105.613 24.5111 106.514 24.5603 107.748 24.6537C108.98 24.7496 109.906 24.7963 110.523 24.7963C110.807 24.3218 111.851 22.4164 113.654 19.0825C115.028 16.4641 116.167 14.7505 117.07 13.9391C117.734 13.2728 118.66 12.9385 119.845 12.9385C120.889 12.9385 121.41 13.1524 121.41 13.5802C121.41 13.6293 121.386 13.7006 121.339 13.7941C120.676 14.6521 119.725 15.8667 118.493 17.4377C116.404 20.2479 114.721 22.7704 113.44 25.0102C114.104 25.0594 115.052 25.0815 116.287 25.0815C116.617 25.0815 117.117 25.0569 117.781 25.0102C118.444 25.0102 118.942 25.0102 119.275 25.0102C119.843 25.0102 120.127 25.1528 120.127 25.438C120.127 26.1534 117.661 26.5812 112.728 26.7238C111.968 27.9138 111.256 29.5807 110.592 31.7246C109.928 33.8685 109.595 35.6289 109.595 37.0106C109.595 39.4864 110.521 40.7256 112.37 40.7256C113.935 40.7256 115.858 39.9167 118.133 38.2965C120.078 36.9147 121.621 35.4642 122.758 33.9398C123.088 33.512 123.399 33.2981 123.683 33.2981C123.877 33.2932 123.972 33.4137 123.972 33.6497Z" fill="#293235"/>
<path d="M137.918 34.1513C137.918 34.2472 137.872 34.3898 137.776 34.5791C136.591 36.4353 134.81 38.1514 132.439 39.7225C129.924 41.3894 127.624 42.2229 125.537 42.2229C122.549 42.2229 121.055 40.342 121.055 36.5804C121.055 34.1046 122.123 31.3903 124.256 28.4375C126.534 25.2954 128.88 23.7244 131.3 23.7244C131.775 23.7244 132.189 23.9383 132.547 24.3685C132.902 24.7963 133.081 25.2512 133.081 25.7257C133.081 27.2033 131.966 28.9882 129.737 31.083C127.746 32.9392 125.919 34.1783 124.258 34.7979C123.925 35.9879 123.761 36.9885 123.761 37.7974C123.761 39.7495 124.638 40.7256 126.394 40.7256C128.055 40.7256 129.928 40.0347 132.015 38.6554C133.818 37.4655 135.359 36.1083 136.64 34.584C136.97 34.1095 137.303 33.8685 137.636 33.8685C137.823 33.8636 137.918 33.962 137.918 34.1513ZM130.945 26.5788C130.945 26.0084 130.661 25.7207 130.09 25.7207C129.38 25.7207 128.334 26.8173 126.96 29.0054C125.774 30.8617 125.04 32.3147 124.753 33.3621C125.985 32.8384 127.266 31.909 128.596 30.5765C130.161 29.0546 130.945 27.722 130.945 26.5788Z" fill="#293235"/>
<path d="M159.406 33.3646C159.406 33.7457 159.264 34.1513 158.98 34.5791C155.279 40.4847 151.602 43.435 147.951 43.435C145.293 43.435 143.966 41.8861 143.966 38.7932C143.966 35.8404 144.962 32.7204 146.954 29.4357C146.67 29.5316 146.361 29.5783 146.028 29.5783C145.269 29.5783 144.534 29.3399 143.821 28.8629C142.966 28.3392 142.54 27.7442 142.54 27.0779C142.018 28.2679 141.046 29.9594 139.623 32.15C137.867 34.9135 136.706 36.2928 136.138 36.2928C135.947 36.2928 135.854 36.1969 135.854 36.0076C135.854 35.8183 135.971 35.5552 136.209 35.2208C138.058 32.6983 139.932 29.4357 141.83 25.4356C141.734 25.0078 141.688 24.4841 141.688 23.8645C141.688 22.7705 141.901 21.5068 142.327 20.0783C142.802 18.2688 143.441 17.364 144.25 17.364C144.771 17.364 145.222 17.7918 145.602 18.6499C145.932 19.3161 146.099 19.9603 146.099 20.5774C146.099 21.7674 145.127 23.5056 143.182 25.7921C143.608 27.2697 144.438 28.0073 145.673 28.0073C146.525 28.0073 147.355 27.5426 148.164 26.6133C148.969 25.6839 149.54 25.2192 149.871 25.2192C150.297 25.2192 150.677 25.3987 151.01 25.7552C151.34 26.1117 151.507 26.5297 151.507 27.0042C151.507 26.9575 150.677 28.5531 149.016 31.7911C147.355 35.029 146.525 37.5294 146.525 39.2923C146.525 40.9592 147.309 41.7927 148.874 41.7927C150.201 41.7927 151.72 41.0305 153.427 39.5062C154.517 38.5055 155.798 37.0771 157.27 35.2208C158.456 33.6965 159.073 32.9343 159.119 32.9343C159.31 32.9368 159.406 33.0794 159.406 33.3646Z" fill="#293235"/>
<path d="M183.246 3.00828C183.246 6.24625 180.187 11.7461 174.066 19.5079C169.226 25.5561 164.719 30.5323 160.546 34.4366C160.546 39.6267 161.851 42.2229 164.46 42.2229C167.068 42.2229 170.769 39.5332 175.56 34.1514C175.748 33.9129 175.939 33.7949 176.128 33.7949C176.366 33.7949 176.483 33.962 176.483 34.294C176.483 34.4857 176.412 34.675 176.27 34.8643C174.609 37.055 172.711 38.9604 170.578 40.5781C167.874 42.6729 165.478 43.7202 163.392 43.7202C159.833 43.7202 158.055 40.792 158.055 34.9356C158.055 30.9355 160.024 25.5561 163.96 18.7925C167.186 13.268 170.624 8.48358 174.279 4.43426C176.887 1.57737 179.07 0.148926 180.826 0.148926C181.394 0.148926 181.94 0.471002 182.462 1.1127C182.984 1.75685 183.246 2.38871 183.246 3.00828ZM180.186 3.29347C180.186 2.38871 179.878 1.93633 179.261 1.93633C177.884 1.93633 176.202 3.26889 174.208 5.93647C171.93 9.03185 169.343 13.3885 166.451 19.0088C163.272 25.1529 161.373 29.748 160.759 32.7942C163.367 30.5077 166.879 26.3183 171.291 20.2234C175.844 13.8433 178.594 9.22362 179.545 6.36672C179.973 5.0317 180.186 4.00647 180.186 3.29347Z" fill="#293235"/>
<path d="M197.617 33.3646C197.617 33.6989 197.475 34.1022 197.191 34.5791C195.863 36.7697 194.32 38.6752 192.566 40.2929C190.288 42.3876 188.155 43.435 186.161 43.435C183.504 43.435 182.176 41.7681 182.176 38.4342C182.176 37.672 182.532 36.1723 183.244 33.935C181.584 36.3641 180.516 37.8638 180.043 38.4342C178.478 40.2905 177.077 41.2198 175.845 41.2198C174.28 41.2198 173.496 39.8872 173.496 37.2197C173.496 35.6953 173.993 33.8637 174.99 31.7198C176.08 29.244 177.268 28.0048 178.549 28.0048C179.259 28.0048 179.617 28.1966 179.617 28.5752C179.617 28.6244 179.012 29.7062 177.802 31.8255C176.592 33.9448 175.987 35.5749 175.987 36.7181C175.987 38.2424 176.438 39.0046 177.339 39.0046C178.858 39.0046 181.584 35.5281 185.522 28.5752C185.853 27.9089 186.352 26.9796 187.016 25.7896C187.347 25.4086 187.704 25.2192 188.084 25.2192C188.51 25.2192 188.902 25.3987 189.257 25.7552C189.612 26.1117 189.791 26.5297 189.791 27.0042C189.791 26.9575 188.949 28.5531 187.266 31.7911C185.581 35.029 184.741 37.5294 184.741 39.2923C184.741 40.9592 185.525 41.7927 187.09 41.7927C188.417 41.7927 189.936 41.0305 191.643 39.5062C192.782 38.5055 194.063 37.0771 195.486 35.2208C196.671 33.6965 197.311 32.9343 197.406 32.9343C197.546 32.9368 197.617 33.0794 197.617 33.3646Z" fill="#293235"/>
<path d="M215.193 33.222C215.193 33.4138 215.026 33.7457 214.695 34.2227C211.516 39.2235 208.908 41.7239 206.867 41.7239C205.395 41.7239 203.642 39.5332 201.601 35.152C201.175 35.4864 199.716 36.878 197.225 39.3316C194.734 41.7853 193.418 43.0097 193.276 43.0097C193.085 43.0097 192.992 42.9138 192.992 42.7245C192.992 42.3434 194.202 40.915 196.622 38.4392C199.277 35.7249 200.749 34.1538 201.033 33.726C200.749 32.5828 200.274 31.5108 199.61 30.5126C199.468 31.0363 198.934 32.0026 198.008 33.4064C197.083 34.8103 196.478 35.5134 196.193 35.5134C195.909 35.5134 195.767 35.3462 195.767 35.0143C195.767 34.9676 196.135 34.3358 196.869 33.1212C197.604 31.9067 197.972 30.8716 197.972 30.0135C197.972 29.9668 197.901 29.5858 197.759 28.8703C197.712 28.8236 197.687 28.7523 197.687 28.6564C197.687 27.8475 198.447 27.4419 199.965 27.4419C200.676 27.4419 201.435 28.0713 202.243 29.3276C202.907 30.3922 203.333 31.383 203.524 32.3C203.62 32.2509 205.16 31.0953 208.148 28.831C210.568 27.0485 211.991 26.156 212.418 26.156C212.606 26.156 212.702 26.2273 212.702 26.3699C212.702 26.6084 211.421 27.7025 208.859 29.6546C206.155 31.7518 204.612 33.0843 204.234 33.6547C204.707 34.7513 205.207 35.8699 205.729 37.0107C206.441 38.4883 207.223 39.2259 208.077 39.2259C209.167 39.2259 210.519 38.1909 212.133 36.1183C213.745 34.0481 214.695 33.0106 214.979 33.0106C215.122 33.0081 215.193 33.0794 215.193 33.222Z" fill="#293235"/>
<path d="M54.6805 57.1294H27.3464C27.1382 57.1294 26.9668 56.9597 26.9668 56.7483C26.9668 56.5393 27.1358 56.3672 27.3464 56.3672H54.6805C54.8887 56.3672 55.0602 56.5368 55.0602 56.7483C55.0577 56.9573 54.8887 57.1294 54.6805 57.1294Z" fill="#293235"/>
<path d="M197.618 57.1294H170.585C170.377 57.1294 170.205 56.9597 170.205 56.7483C170.205 56.5393 170.374 56.3672 170.585 56.3672H197.618C197.826 56.3672 197.997 56.5368 197.997 56.7483C197.997 56.9573 197.828 57.1294 197.618 57.1294Z" fill="#293235"/>
<path d="M65.1677 53.5128V53.5103C65.1261 53.4169 65.0501 53.3652 64.9546 53.3652H64.8885C64.793 53.3652 64.7195 53.4169 64.6754 53.5128L62.4245 58.8946C62.3976 58.961 62.3976 59.0225 62.4245 59.0741C62.4539 59.1331 62.5102 59.1675 62.5788 59.1675H62.7748C62.8482 59.1675 62.9046 59.1577 62.9486 59.138C63.0025 59.1134 63.0466 59.0643 63.0785 58.988L63.5708 57.7735H66.2601L66.7524 58.9856C66.7818 59.0618 66.8234 59.1134 66.8822 59.138C66.9263 59.1577 66.9851 59.1651 67.0561 59.1651H67.2472C67.3133 59.1651 67.3696 59.1331 67.4015 59.0741C67.4211 59.0372 67.4382 58.9758 67.4039 58.8897L65.1677 53.5128ZM66.0054 57.1711H63.8206L64.7489 54.9142L64.9203 54.4519L65.0893 54.9166L66.0054 57.1711Z" fill="#293235"/>
<path d="M73.0272 53.4785H69.1892C69.128 53.4785 69.0741 53.4982 69.0324 53.5351C68.9908 53.5744 68.9688 53.6285 68.9688 53.69V53.8694C68.9688 53.9309 68.9908 53.9825 69.0349 54.0243C69.0765 54.0612 69.1304 54.0809 69.1916 54.0809H70.7984V58.9366C70.7984 59.003 70.8204 59.0595 70.862 59.1013C70.9037 59.1431 70.96 59.1653 71.0262 59.1653H71.1903C71.2564 59.1653 71.3127 59.1431 71.3544 59.1013C71.396 59.0595 71.418 59.003 71.418 58.9366V54.0809H73.0272C73.1619 54.0809 73.2452 53.9997 73.2452 53.8694V53.69C73.2428 53.5597 73.1619 53.4785 73.0272 53.4785Z" fill="#293235"/>
<path d="M79.3515 53.4785H76.4172C76.3511 53.4785 76.2948 53.5006 76.2531 53.5424C76.2115 53.5842 76.1895 53.6408 76.1895 53.7072V58.9366C76.1895 59.003 76.2115 59.0595 76.2531 59.1013C76.2948 59.1431 76.3511 59.1653 76.4172 59.1653H79.3515C79.4911 59.1653 79.5768 59.0767 79.5768 58.9366V58.7866C79.5768 58.649 79.4911 58.5629 79.3515 58.5629H76.8091V56.5714H78.8763C78.9425 56.5714 78.9988 56.5493 79.0404 56.5075C79.0821 56.4657 79.1066 56.4092 79.1066 56.3428V56.1928C79.1066 56.0551 79.0184 55.9691 78.8763 55.9691H76.8091V54.0809H79.3515C79.4911 54.0809 79.5768 53.9948 79.5768 53.8547V53.7072C79.5768 53.567 79.4911 53.4785 79.3515 53.4785Z" fill="#293235"/>
<path d="M86.1675 58.9366C86.1675 59.003 86.1896 59.0595 86.2312 59.1013C86.2728 59.1431 86.3292 59.1653 86.3953 59.1653H86.5619C86.7015 59.1653 86.7872 59.0767 86.7872 58.9366V53.7072C86.7872 53.5646 86.7015 53.4785 86.5619 53.4785H83.6056C83.5394 53.4785 83.4831 53.5006 83.4415 53.5424C83.3998 53.5842 83.3778 53.6408 83.3778 53.7047C83.3655 54.1792 83.3508 54.5972 83.3362 54.9586C83.3215 55.3151 83.3019 55.6691 83.2798 56.0133C83.2578 56.3526 83.2308 56.6477 83.2014 56.8886C83.172 57.1295 83.1353 57.3606 83.0937 57.5696C83.052 57.7786 83.0079 57.9483 82.9565 58.0786C82.9075 58.2064 82.8512 58.3146 82.7875 58.4031C82.7287 58.4842 82.665 58.5383 82.5965 58.5654C82.5254 58.5924 82.4446 58.6022 82.3613 58.5899C82.305 58.5801 82.2585 58.5875 82.2193 58.6145C82.1948 58.6317 82.1605 58.6686 82.1531 58.7301L82.1213 58.912C82.0944 59.0251 82.136 59.1185 82.2364 59.1628C82.3295 59.1997 82.4299 59.2193 82.5352 59.2193C82.7263 59.2193 82.8953 59.1653 83.0447 59.0595C83.1892 58.9563 83.3141 58.7965 83.417 58.5826C83.5149 58.3785 83.5982 58.1326 83.6644 57.8548C83.728 57.5795 83.7819 57.2377 83.8236 56.837C83.8652 56.4338 83.8995 56.0035 83.9215 55.5585C83.9436 55.1332 83.9607 54.639 83.9705 54.0833H86.1626V58.9366H86.1675Z" fill="#293235"/>
<path d="M90.8337 59.1677H92.1294C92.7687 59.1677 93.2806 58.9981 93.648 58.6637C94.0203 58.3269 94.2064 57.8524 94.2064 57.2525C94.2064 56.9919 94.1648 56.7558 94.0791 56.5518C93.9933 56.3477 93.8807 56.1781 93.7411 56.0527C93.6039 55.9273 93.4349 55.824 93.239 55.7453C93.0479 55.6667 92.8495 55.6126 92.6536 55.5831C92.4576 55.5536 92.2445 55.5388 92.0192 55.5388C91.7228 55.5388 91.4534 55.5536 91.2232 55.5782V53.7096C91.2232 53.567 91.1375 53.4785 90.9979 53.4785H90.8313C90.7652 53.4785 90.7088 53.5006 90.6672 53.5424C90.6256 53.5842 90.6035 53.6408 90.6035 53.7072V58.9366C90.6035 59.003 90.6256 59.0595 90.6672 59.1013C90.7113 59.1456 90.7676 59.1677 90.8337 59.1677ZM91.2256 58.5654V56.1805C91.4681 56.1559 91.7473 56.1412 92.0584 56.1412C92.2641 56.1412 92.4576 56.1608 92.634 56.2002C92.8079 56.2395 92.972 56.301 93.1214 56.3846C93.2634 56.4633 93.3786 56.5788 93.4618 56.7288C93.5451 56.8788 93.5892 57.0607 93.5892 57.2697C93.5892 57.6753 93.4643 57.9851 93.2071 58.2187C92.9499 58.4498 92.585 58.5678 92.1172 58.5678H91.2256V58.5654Z" fill="#293235"/>
<path d="M100.896 53.4785H97.9622C97.896 53.4785 97.8397 53.5006 97.7981 53.5424C97.7564 53.5842 97.7344 53.6408 97.7344 53.7072V58.9366C97.7344 59.003 97.7564 59.0595 97.7981 59.1013C97.8397 59.1431 97.896 59.1653 97.9622 59.1653H100.896C101.036 59.1653 101.122 59.0767 101.122 58.9366V58.7866C101.122 58.649 101.036 58.5629 100.896 58.5629H98.354V56.5714H100.421C100.487 56.5714 100.544 56.5493 100.585 56.5075C100.627 56.4657 100.651 56.4092 100.651 56.3428V56.1928C100.651 56.0551 100.563 55.9691 100.421 55.9691H98.354V54.0809H100.896C101.036 54.0809 101.122 53.9948 101.122 53.8547V53.7072C101.122 53.567 101.034 53.4785 100.896 53.4785Z" fill="#293235"/>
<path d="M113.651 58.9366C113.651 59.003 113.673 59.0595 113.717 59.1013C113.759 59.1431 113.818 59.1653 113.881 59.1653H114.041C114.107 59.1653 114.163 59.1431 114.205 59.1013C114.246 59.0595 114.271 59.003 114.268 58.9317L114.041 53.7072C114.041 53.6408 114.019 53.5842 113.977 53.5424C113.935 53.5006 113.879 53.4785 113.813 53.4785H113.438C113.308 53.4785 113.208 53.5474 113.159 53.6752L111.471 58.3318L109.772 53.6727C109.723 53.5474 109.622 53.4785 109.492 53.4785H109.142C109.076 53.4785 109.02 53.5006 108.978 53.5424C108.949 53.5719 108.914 53.6236 108.914 53.7022L108.682 58.9341C108.682 59.0005 108.704 59.0571 108.748 59.0989C108.789 59.1407 108.848 59.1628 108.914 59.1628H109.076C109.216 59.1628 109.304 59.0743 109.304 58.9366L109.463 55.1037L109.48 54.5111L111.104 58.9981L111.111 59.0153C111.177 59.1235 111.258 59.1456 111.315 59.1456H111.631C111.687 59.1456 111.77 59.1235 111.836 59.0153L113.252 55.1332L113.475 54.5038L113.651 58.9366Z" fill="#293235"/>
<path d="M119.914 53.5128V53.5103C119.872 53.4169 119.796 53.3652 119.701 53.3652H119.635C119.539 53.3652 119.466 53.4169 119.421 53.5128L117.171 58.8946C117.144 58.961 117.144 59.0225 117.171 59.0741C117.2 59.1331 117.256 59.1675 117.325 59.1675H117.521C117.594 59.1675 117.651 59.1577 117.695 59.138C117.749 59.1134 117.793 59.0643 117.825 58.988L118.317 57.7735H121.006L121.498 58.9856C121.528 59.0618 121.57 59.1134 121.628 59.138C121.672 59.1577 121.731 59.1651 121.802 59.1651H121.993C122.059 59.1651 122.116 59.1331 122.148 59.0741C122.167 59.0372 122.184 58.9758 122.15 58.8897L119.914 53.5128ZM120.751 57.1711H118.567L119.495 54.9142L119.666 54.4519L119.835 54.9166L120.751 57.1711Z" fill="#293235"/>
<path d="M127.773 53.4785H123.935C123.874 53.4785 123.82 53.4982 123.779 53.5351C123.737 53.5744 123.715 53.6285 123.715 53.69V53.8694C123.715 53.9309 123.737 53.9825 123.781 54.0243C123.823 54.0612 123.877 54.0809 123.938 54.0809H125.544V58.9366C125.544 59.003 125.567 59.0595 125.608 59.1013C125.65 59.1431 125.706 59.1653 125.772 59.1653H125.936C126.002 59.1653 126.059 59.1431 126.1 59.1013C126.142 59.0595 126.164 59.003 126.164 58.9366V54.0809H127.773C127.908 54.0809 127.991 53.9997 127.991 53.8694V53.69C127.991 53.5597 127.908 53.4785 127.773 53.4785Z" fill="#293235"/>
<path d="M134.641 55.2804C134.641 54.7223 134.452 54.2773 134.08 53.9553C133.713 53.6381 133.157 53.4758 132.432 53.4758H131.165C131.099 53.4758 131.043 53.498 131.001 53.5397C130.96 53.5815 130.938 53.6381 130.938 53.7045V58.9339C130.938 59.0003 130.96 59.0568 131.001 59.0986C131.043 59.1404 131.099 59.1626 131.165 59.1626H131.332C131.471 59.1626 131.557 59.0741 131.557 58.9339V57.1539C131.819 57.1736 132.057 57.1834 132.265 57.1834C132.679 57.1785 133.046 57.1244 133.355 57.026C133.668 56.9252 133.921 56.7826 134.104 56.6056C134.286 56.4286 134.423 56.227 134.511 56.0082C134.597 55.7918 134.641 55.546 134.641 55.2804ZM134.019 55.2903C134.019 55.6886 133.877 55.9959 133.585 56.2295C133.291 56.4655 132.819 56.5835 132.174 56.5835C131.944 56.5835 131.736 56.5687 131.552 56.5417V54.0831H132.466C133.007 54.0831 133.404 54.1962 133.649 54.4175C133.899 54.6387 134.019 54.9239 134.019 55.2903Z" fill="#293235"/>
<path d="M141.403 59.1675C141.47 59.1675 141.526 59.1356 141.558 59.0766C141.577 59.0397 141.594 58.9782 141.56 58.8922L139.324 53.5103C139.282 53.4169 139.206 53.3652 139.111 53.3652H139.045C138.949 53.3652 138.876 53.4169 138.832 53.5128L136.581 58.8946C136.554 58.961 136.554 59.0225 136.581 59.0741C136.61 59.1331 136.666 59.1675 136.735 59.1675H136.931C137.004 59.1675 137.061 59.1577 137.105 59.138C137.159 59.1134 137.203 59.0643 137.235 58.988L137.727 57.7735H140.416L140.909 58.9856C140.938 59.0618 140.98 59.1134 141.038 59.138C141.083 59.1577 141.141 59.1651 141.212 59.1651H141.403V59.1675ZM140.164 57.1711H137.979L138.908 54.9142L139.079 54.4519L139.248 54.9166L140.164 57.1711Z" fill="#293235"/>
<path d="M146.731 59.2782C147.456 59.2782 148.078 59.0913 148.58 58.7176C148.658 58.6537 148.683 58.5627 148.644 58.4693L148.558 58.2849C148.526 58.2185 148.479 58.1915 148.448 58.1841C148.416 58.1743 148.364 58.1718 148.303 58.2112C147.811 58.5185 147.287 58.6758 146.745 58.6758C146.54 58.6758 146.339 58.6488 146.148 58.5947C145.959 58.5406 145.773 58.4521 145.597 58.3292C145.42 58.2062 145.266 58.0538 145.134 57.8768C145.004 57.6998 144.899 57.476 144.818 57.2105C144.737 56.945 144.698 56.645 144.698 56.3205C144.698 55.932 144.754 55.5829 144.867 55.278C144.977 54.9756 145.131 54.7298 145.322 54.5454C145.513 54.3585 145.739 54.2159 145.986 54.1176C146.236 54.0192 146.51 53.9701 146.799 53.9701C147.304 53.9701 147.83 54.1299 148.372 54.447C148.467 54.4913 148.533 54.452 148.57 54.3954C148.6 54.3389 148.612 54.27 148.612 54.184C148.612 54.0217 148.504 53.8717 148.293 53.7365C148.102 53.616 147.87 53.5226 147.603 53.4587C147.338 53.3948 147.079 53.3628 146.829 53.3628C146.003 53.3628 145.33 53.6332 144.83 54.1643C144.33 54.6954 144.078 55.4133 144.078 56.2984C144.078 56.7778 144.149 57.2154 144.286 57.5965C144.426 57.9825 144.622 58.2997 144.869 58.5381C145.114 58.7766 145.398 58.961 145.714 59.0864C146.033 59.2143 146.373 59.2782 146.731 59.2782Z" fill="#293235"/>
<path d="M156.046 54.2872C155.821 54.0045 155.522 53.7783 155.162 53.6136C154.802 53.4488 154.393 53.3652 153.947 53.3652C153.494 53.3652 153.08 53.4513 152.717 53.6185C152.355 53.7881 152.059 54.0168 151.836 54.2995C151.615 54.5798 151.446 54.8945 151.334 55.2362C151.221 55.578 151.162 55.9369 151.162 56.3057C151.162 56.6155 151.199 56.9155 151.27 57.2007C151.343 57.4883 151.456 57.7612 151.605 58.012C151.757 58.2652 151.943 58.4865 152.159 58.6733C152.377 58.8602 152.641 59.0102 152.948 59.1184C153.251 59.2265 153.589 59.2806 153.947 59.2806C154.312 59.2806 154.652 59.2241 154.963 59.1134C155.272 59.0028 155.539 58.8504 155.755 58.6611C155.968 58.4742 156.151 58.2505 156.301 57.9972C156.45 57.7465 156.56 57.4785 156.631 57.1982C156.7 56.9204 156.737 56.6327 156.737 56.3426C156.737 55.9541 156.678 55.5804 156.56 55.2289C156.443 54.8847 156.271 54.565 156.046 54.2872ZM156.115 56.3426C156.115 56.5835 156.085 56.822 156.029 57.0482C155.973 57.2744 155.882 57.4883 155.762 57.6875C155.642 57.8841 155.497 58.0612 155.331 58.2062C155.167 58.3513 154.961 58.4693 154.726 58.5529C154.253 58.725 153.648 58.7274 153.175 58.548C152.94 58.4595 152.737 58.3365 152.57 58.1866C152.404 58.0341 152.257 57.8546 152.139 57.653C152.019 57.4514 151.931 57.2326 151.872 57.0089C151.816 56.7827 151.787 56.5467 151.787 56.3106C151.787 56.0697 151.816 55.8312 151.872 55.605C151.929 55.3788 152.019 55.1649 152.139 54.9658C152.259 54.7691 152.404 54.5945 152.57 54.447C152.737 54.302 152.94 54.1839 153.175 54.1004C153.413 54.0143 153.673 53.97 153.952 53.97C154.229 53.97 154.491 54.0143 154.726 54.1053C154.963 54.1938 155.167 54.3167 155.331 54.4667C155.497 54.6191 155.644 54.7986 155.762 55.0002C155.882 55.2043 155.973 55.4206 156.029 55.6468C156.085 55.8705 156.115 56.1066 156.115 56.3426Z" fill="#293235"/>
<path d="M163.865 57.132C163.819 56.9869 163.75 56.8443 163.657 56.7116C163.564 56.5739 163.432 56.4559 163.268 56.3575C163.172 56.301 163.067 56.2543 162.952 56.2174C163.072 56.1535 163.177 56.0723 163.268 55.9765C163.415 55.8216 163.52 55.6568 163.581 55.4823C163.642 55.3102 163.672 55.1282 163.672 54.9414C163.672 54.5013 163.505 54.1423 163.179 53.8744C162.859 53.6113 162.403 53.4785 161.827 53.4785H160.314C160.248 53.4785 160.191 53.5006 160.15 53.5424C160.108 53.5842 160.086 53.6408 160.086 53.7072V58.9366C160.086 59.003 160.108 59.0595 160.15 59.1013C160.191 59.1431 160.248 59.1653 160.314 59.1653H161.845C162.508 59.1653 163.025 59.0251 163.383 58.7522C163.748 58.4719 163.931 58.0786 163.931 57.5819C163.934 57.4319 163.909 57.2795 163.865 57.132ZM160.706 55.9986V54.0809H161.81C162.227 54.0809 162.538 54.162 162.741 54.3243C162.939 54.4841 163.035 54.6955 163.035 54.9733C163.035 55.261 162.934 55.497 162.726 55.6986C162.521 55.8978 162.236 55.9986 161.881 55.9986H160.706ZM163.277 57.5426C163.277 57.8524 163.174 58.0933 162.964 58.2826C162.753 58.4695 162.43 58.5654 162.006 58.5654H160.708V56.5813H162.082C162.484 56.5813 162.788 56.6673 162.986 56.8345C163.182 57.0017 163.277 57.2328 163.277 57.5426Z" fill="#293235"/>
<path d="M79.2992 66.4721C79.1155 66.3418 78.9123 66.2213 78.6943 66.118C78.4787 66.0148 78.2583 65.9189 78.0379 65.8304C77.8223 65.7443 77.6239 65.6534 77.45 65.5624C77.2835 65.4739 77.1439 65.3657 77.0385 65.2403C76.9381 65.1198 76.8867 64.9871 76.8842 64.8346C76.8842 64.6773 76.9161 64.5372 76.9798 64.4191C77.0434 64.3011 77.1292 64.2102 77.2345 64.1462C77.3472 64.0774 77.4721 64.0258 77.6019 63.9913C77.7341 63.9569 77.8762 63.9397 78.0232 63.9397C78.5375 63.9397 79.0078 64.102 79.4193 64.4216C79.4854 64.4757 79.5613 64.4708 79.6177 64.4142C79.7034 64.3282 79.745 64.2347 79.745 64.1389C79.745 63.9938 79.6495 63.8512 79.4609 63.7209C79.2894 63.6029 79.0764 63.507 78.8265 63.4382C78.3171 63.298 77.8321 63.3079 77.4157 63.4259C77.2002 63.4873 77.0067 63.5783 76.8402 63.6988C76.6712 63.8217 76.534 63.984 76.436 64.1807C76.338 64.3773 76.2891 64.6011 76.2891 64.8494C76.2891 65.0485 76.3258 65.2305 76.4017 65.3927C76.4752 65.555 76.5781 65.6927 76.7054 65.8058C76.8279 65.914 76.9675 66.0123 77.1243 66.1008C77.2786 66.1893 77.4402 66.268 77.6117 66.3368C77.7782 66.4057 77.9448 66.4721 78.1138 66.5409C78.2779 66.6073 78.4371 66.6786 78.5865 66.7548C78.7335 66.8286 78.8633 66.9122 78.9759 67.0007C79.0837 67.0843 79.1694 67.1875 79.2307 67.308C79.2919 67.426 79.3237 67.5612 79.3237 67.7087C79.3237 67.9816 79.2111 68.2005 78.9833 68.3726C78.7482 68.5496 78.4469 68.6381 78.0868 68.6381C77.8346 68.6381 77.5749 68.5963 77.3153 68.5127C77.0557 68.4291 76.8304 68.3136 76.6393 68.166C76.5928 68.1365 76.5536 68.1365 76.5266 68.1439C76.4997 68.1488 76.463 68.166 76.4311 68.2226C76.3944 68.2963 76.3772 68.3627 76.3772 68.4242C76.3772 68.5717 76.4385 68.7045 76.5585 68.82C76.6687 68.9258 76.8132 69.0118 76.9847 69.0733C77.1488 69.1323 77.33 69.179 77.5211 69.211C77.7097 69.2429 77.9031 69.2577 78.0942 69.2577C78.3244 69.2577 78.5473 69.2282 78.758 69.1716C78.9686 69.1126 79.167 69.0266 79.3433 68.9085C79.5246 68.7881 79.6715 68.6258 79.7818 68.4242C79.8895 68.2226 79.9459 67.9915 79.9459 67.7333C79.9459 67.4604 79.8846 67.2146 79.7646 66.9982C79.6446 66.7843 79.4878 66.6073 79.2992 66.4721Z" fill="#293235"/>
<path d="M82.3587 63.4504H82.1946C82.1284 63.4504 82.0721 63.4726 82.0305 63.5144C81.9888 63.5562 81.9668 63.6127 81.9668 63.6791V68.9085C81.9668 68.9749 81.9888 69.0315 82.0305 69.0733C82.0721 69.1151 82.1284 69.1372 82.1946 69.1372H82.3587C82.4248 69.1372 82.4811 69.1151 82.5228 69.0733C82.5644 69.0315 82.5865 68.9749 82.5865 68.9085V63.6791C82.5865 63.6127 82.5644 63.5562 82.5228 63.5144C82.4811 63.4726 82.4248 63.4504 82.3587 63.4504Z" fill="#293235"/>
<path d="M89.1277 63.4504H88.9857C88.9195 63.4504 88.8632 63.4726 88.8216 63.5144C88.7799 63.5562 88.7579 63.6127 88.7579 63.6791V67.2637C88.7652 67.485 88.7824 67.7677 88.8093 68.107L88.2215 67.1998L85.7012 63.6053C85.6228 63.5021 85.5371 63.4504 85.444 63.4504H85.3215C85.2554 63.4504 85.1991 63.4726 85.1574 63.5144C85.1158 63.5562 85.0938 63.6127 85.0938 63.6791V68.9085C85.0938 68.9749 85.1158 69.0315 85.1574 69.0733C85.1991 69.1151 85.2554 69.1372 85.3215 69.1372H85.4611C85.5273 69.1372 85.5836 69.1151 85.6252 69.0733C85.6669 69.0315 85.6889 68.9749 85.6889 68.9085V65.1813C85.6693 64.9158 85.6546 64.7019 85.6424 64.5421L86.169 65.3239L88.7138 68.9823C88.7922 69.0855 88.8779 69.1372 88.9734 69.1372H89.1326C89.2722 69.1372 89.358 69.0487 89.358 68.9085V63.6791C89.3531 63.5365 89.2673 63.4504 89.1277 63.4504Z" fill="#293235"/>
<path d="M95.9075 68.2595C95.8757 68.1907 95.8291 68.1661 95.7973 68.1563C95.7654 68.1464 95.714 68.144 95.6528 68.1833C95.1605 68.4906 94.6363 68.648 94.095 68.648C93.8893 68.648 93.6909 68.6209 93.4974 68.5669C93.3088 68.5128 93.1226 68.4243 92.9463 68.3013C92.7699 68.1784 92.6156 68.026 92.4834 67.8489C92.3536 67.6719 92.2483 67.4482 92.1674 67.1827C92.0866 66.9171 92.0474 66.6172 92.0474 66.2927C92.0474 65.9042 92.1037 65.5551 92.2164 65.2502C92.3266 64.9478 92.4809 64.7019 92.672 64.5175C92.863 64.3307 93.0884 64.1881 93.3357 64.0897C93.5856 63.9914 93.8599 63.9422 94.1489 63.9422C94.6535 63.9422 95.1801 64.102 95.7213 64.4192C95.8169 64.4635 95.883 64.4241 95.9197 64.3676C95.9491 64.311 95.9614 64.2422 95.9614 64.1561C95.9614 63.9939 95.8536 63.8439 95.643 63.7087C95.4519 63.5882 95.2192 63.4948 94.9523 63.4308C94.6877 63.3669 94.4281 63.335 94.1783 63.335C93.3529 63.335 92.6793 63.6054 92.1797 64.1365C91.68 64.6675 91.4277 65.3854 91.4277 66.2705C91.4277 66.7499 91.4988 67.1876 91.6359 67.5687C91.7755 67.9547 91.9715 68.2718 92.2189 68.5103C92.4638 68.7488 92.7479 68.9332 93.0639 69.0586C93.3798 69.184 93.7203 69.2454 94.0779 69.2454C94.8029 69.2454 95.425 69.0586 95.9246 68.6898C95.9957 68.6357 96.0128 68.5718 96.0128 68.5275C96.0128 68.4956 96.0055 68.4661 95.9908 68.439L95.9075 68.2595Z" fill="#293235"/>
<path d="M100.971 63.4504H98.0364C97.9702 63.4504 97.9139 63.4726 97.8723 63.5144C97.8306 63.5562 97.8086 63.6127 97.8086 63.6791V68.9085C97.8086 68.9749 97.8306 69.0315 97.8723 69.0733C97.9139 69.1151 97.9702 69.1372 98.0364 69.1372H100.971C101.11 69.1372 101.196 69.0487 101.196 68.9085V68.7586C101.196 68.6209 101.11 68.5348 100.971 68.5348H98.4283V66.5434H100.495C100.562 66.5434 100.618 66.5212 100.66 66.4794C100.701 66.4376 100.726 66.3811 100.726 66.3147V66.1647C100.726 66.027 100.638 65.941 100.495 65.941H98.4283V64.0528H100.971C101.11 64.0528 101.196 63.9667 101.196 63.8266V63.6791C101.194 63.5365 101.108 63.4504 100.971 63.4504Z" fill="#293235"/>
<path d="M107.14 63.7112H106.931C106.848 63.7112 106.765 63.7431 106.682 63.8046L105.57 64.6676C105.523 64.7045 105.496 64.7561 105.496 64.8151C105.496 64.8643 105.508 64.9061 105.538 64.9454L105.636 65.0683C105.704 65.1618 105.81 65.1765 105.92 65.1027L106.738 64.4684V68.9062C106.738 69.0488 106.824 69.1349 106.963 69.1349H107.135C107.274 69.1349 107.36 69.0463 107.36 68.9062V63.9398C107.362 63.7997 107.277 63.7112 107.14 63.7112Z" fill="#293235"/>
<path d="M112.679 64.6159C112.593 64.4216 112.483 64.252 112.35 64.1143C112.216 63.9742 112.049 63.8611 111.851 63.7775C111.652 63.6963 111.429 63.6545 111.187 63.6545C110.636 63.6545 110.195 63.8291 109.874 64.1708C109.558 64.5101 109.396 64.9551 109.396 65.496C109.396 65.8058 109.458 66.0935 109.58 66.3516C109.703 66.6122 109.891 66.8286 110.134 66.9933C110.379 67.158 110.665 67.2416 110.986 67.2416C111.282 67.2416 111.562 67.1753 111.821 67.0425C111.973 66.9638 112.11 66.8655 112.233 66.7475C112.103 67.2883 111.86 67.7235 111.513 68.0431C111.094 68.4291 110.565 68.6332 109.948 68.648C109.832 68.648 109.759 68.7242 109.759 68.8446V69.061C109.759 69.152 109.818 69.2503 109.982 69.2503C110.261 69.2454 110.54 69.2011 110.81 69.1175C111.082 69.034 111.349 68.9012 111.606 68.7242C111.86 68.5447 112.088 68.3259 112.282 68.0751C112.475 67.8219 112.632 67.5022 112.747 67.131C112.862 66.7597 112.921 66.3467 112.921 65.9091C112.921 65.6706 112.901 65.4419 112.865 65.2305C112.825 65.0117 112.764 64.8076 112.679 64.6159ZM112.292 65.705C112.198 65.9902 112.034 66.2287 111.799 66.4106C111.562 66.595 111.295 66.6909 111.003 66.6909C110.719 66.6909 110.489 66.5852 110.3 66.3688C110.112 66.1525 110.016 65.8402 110.016 65.4419C110.016 65.2182 110.055 65.0117 110.134 64.8273C110.21 64.6478 110.337 64.4978 110.511 64.3798C110.685 64.2618 110.898 64.2028 111.145 64.2028C111.518 64.2028 111.794 64.3307 111.99 64.5913C112.189 64.8543 112.289 65.228 112.292 65.705Z" fill="#293235"/>
<path d="M118.168 67.2688H117.756V63.9423C117.756 63.7997 117.67 63.7112 117.536 63.7112H117.217C117.11 63.7112 117.009 63.7677 116.916 63.8857L114.616 67.0401C114.538 67.1508 114.496 67.2639 114.496 67.3769V67.581C114.496 67.7507 114.604 67.8515 114.783 67.8515H117.158V68.9087C117.158 69.0513 117.242 69.1373 117.372 69.1373H117.536C117.67 69.1373 117.754 69.0488 117.754 68.9087V67.8515H118.165C118.334 67.8515 118.395 67.7457 118.395 67.6474V67.4827C118.398 67.3794 118.337 67.2688 118.168 67.2688ZM117.158 64.5004V67.2688H115.138L117.158 64.5004Z" fill="#293235"/>
<path d="M122.352 65.8992C121.862 65.6558 121.24 65.646 120.62 65.9017L120.814 64.3429H122.928C123.062 64.3429 123.146 64.2643 123.146 64.1364V63.9348C123.146 63.8045 123.062 63.7258 122.928 63.7258H120.503C120.39 63.7258 120.309 63.7922 120.282 63.9151L120.023 66.2483C120.008 66.4155 120.074 66.4819 120.135 66.5114L120.226 66.5532C120.341 66.6048 120.427 66.5729 120.469 66.5434C120.78 66.3787 121.105 66.2975 121.436 66.2975C121.637 66.2975 121.816 66.3295 121.968 66.3934C122.117 66.4573 122.237 66.5434 122.323 66.6491C122.411 66.7597 122.479 66.8851 122.526 67.0204C122.573 67.158 122.595 67.3105 122.595 67.4703C122.595 67.871 122.484 68.1562 122.254 68.3455C122.024 68.5348 121.713 68.6307 121.328 68.6307C121.12 68.6307 120.905 68.5963 120.691 68.5299C120.478 68.4635 120.292 68.3726 120.126 68.2497C120.062 68.2128 119.991 68.2324 119.942 68.3136C119.922 68.3652 119.91 68.4193 119.91 68.4758C119.91 68.6332 119.974 68.7733 120.104 68.8864C120.221 68.9921 120.371 69.0684 120.547 69.1175C120.714 69.1642 120.868 69.1962 121.007 69.2183C121.147 69.2405 121.277 69.2503 121.39 69.2503C121.975 69.2503 122.43 69.0807 122.744 68.7463C123.055 68.4144 123.214 67.9767 123.214 67.4481C123.214 67.0818 123.133 66.7622 122.974 66.4942C122.815 66.2238 122.604 66.0246 122.352 65.8992Z" fill="#293235"/>
<path d="M128.636 63.4504H128.474C128.408 63.4504 128.351 63.4726 128.31 63.5144C128.268 63.5562 128.246 63.6127 128.246 63.6791V68.9085C128.246 68.9749 128.268 69.0315 128.31 69.0733C128.351 69.1151 128.408 69.1372 128.474 69.1372H128.636C128.702 69.1372 128.758 69.1151 128.8 69.0733C128.841 69.0315 128.863 68.9749 128.863 68.9085V63.6791C128.863 63.6127 128.841 63.5562 128.8 63.5144C128.758 63.4726 128.702 63.4504 128.636 63.4504Z" fill="#293235"/>
<path d="M134.572 63.4504H130.734C130.673 63.4504 130.619 63.4701 130.577 63.507C130.536 63.5463 130.514 63.6004 130.514 63.6619V63.8414C130.514 63.9028 130.536 63.9544 130.58 63.9962C130.621 64.0331 130.675 64.0528 130.737 64.0528H132.343V68.9085C132.343 68.9749 132.365 69.0315 132.407 69.0733C132.449 69.1151 132.505 69.1372 132.571 69.1372H132.735C132.801 69.1372 132.858 69.1151 132.899 69.0733C132.941 69.0315 132.963 68.9749 132.963 68.9085V64.0528H134.572C134.707 64.0528 134.79 63.9717 134.79 63.8414V63.6619C134.788 63.5316 134.707 63.4504 134.572 63.4504Z" fill="#293235"/>
<path d="M138.274 63.4825V63.48C138.232 63.3866 138.156 63.335 138.061 63.335H137.995C137.899 63.335 137.826 63.3866 137.782 63.4825L135.531 68.8643C135.519 68.8963 135.514 68.9283 135.514 68.9578C135.514 68.9824 135.519 69.0094 135.531 69.0414C135.56 69.1004 135.617 69.1348 135.685 69.1348H135.881C135.955 69.1348 136.011 69.125 136.055 69.1053C136.109 69.0807 136.153 69.0315 136.185 68.9553L136.677 67.7408H139.366L139.859 68.9529C139.888 69.0291 139.93 69.0807 139.989 69.1053C140.033 69.125 140.091 69.1323 140.162 69.1323H140.353C140.417 69.1323 140.471 69.1004 140.51 69.0315C140.518 69.0119 140.525 68.9897 140.53 68.9504C140.53 68.9234 140.525 68.8914 140.51 68.857L138.274 63.4825ZM139.112 67.1433H136.927L137.855 64.8863L138.027 64.4241L138.196 64.8888L139.112 67.1433Z" fill="#293235"/>
<path d="M145.506 68.493H142.809V63.6791C142.809 63.5365 142.723 63.4504 142.584 63.4504H142.417C142.351 63.4504 142.295 63.4726 142.253 63.5144C142.211 63.5562 142.189 63.6127 142.189 63.6791V68.9085C142.189 68.9749 142.211 69.0315 142.253 69.0733C142.295 69.1151 142.351 69.1372 142.417 69.1372H145.506C145.572 69.1372 145.628 69.1151 145.67 69.0733C145.712 69.0315 145.734 68.9749 145.734 68.9085V68.7241C145.734 68.6577 145.712 68.6012 145.67 68.5594C145.628 68.5176 145.569 68.493 145.506 68.493Z" fill="#293235"/>
<path d="M150.31 63.4504H150.065C149.95 63.4504 149.857 63.5045 149.793 63.6078L148.323 66.0664L146.854 63.6078C146.79 63.507 146.697 63.4529 146.582 63.4529H146.342C146.273 63.4529 146.217 63.4873 146.192 63.5365C146.178 63.5611 146.168 63.5881 146.168 63.6225C146.168 63.657 146.178 63.6889 146.197 63.7258L148.01 66.713V68.9134C148.01 68.9798 148.032 69.0364 148.074 69.0782C148.115 69.12 148.171 69.1421 148.238 69.1421H148.404C148.544 69.1421 148.63 69.0536 148.63 68.9134V66.713L150.444 63.7233C150.464 63.6889 150.474 63.6545 150.474 63.6201C150.474 63.5955 150.466 63.5709 150.454 63.5488C150.435 63.4824 150.378 63.4504 150.31 63.4504Z" fill="#293235"/>
</svg>
